<?xml version="1.0" encoding="utf-8"?>
<!-- Generator: Adobe Illustrator 24.1.3, SVG Export Plug-In . SVG Version: 6.00 Build 0)  -->
<svg version="1.1" id="Layer_1" xmlns="http://www.w3.org/2000/svg" xmlns:xlink="http://www.w3.org/1999/xlink" x="0px" y="0px"
	 viewBox="0 0 841.89 595.28" style="enable-background:new 0 0 841.89 595.28;" xml:space="preserve">
<style type="text/css">
	.st0{clip-path:url(#SVGID_2_);}
</style>
<g>
	<defs>
		<rect id="SVGID_1_" x="0.95" y="0.03" width="841.89" height="595.28"/>
	</defs>
	<clipPath id="SVGID_2_">
		<use xlink:href="#SVGID_1_"  style="overflow:visible;"/>
	</clipPath>
	<path class="st0" d="M315.5,370.07c1.55-1.35,3.34-2.63,4-4.57c0.69-2.03,0.58-5.11,2.71-5.36c2.18-0.25,3.58-2.38,4.66-4.29
		c6.24-11.04,12.49-22.09,18.74-33.14c2.32-4.11,4.73-8.67,3.9-13.32c-0.39-2.17-1.47-4.16-1.91-6.32
		c-0.45-2.16-0.05-4.76,1.82-5.94c-1-1.22-0.2-3.02,0.62-4.36c3.29-5.42,6.58-10.85,9.88-16.27c0.33-0.55,0.68-1.11,1.23-1.45
		c1.42-0.88,3.22,0.23,4.46,1.36c7.27,6.69,11.74,15.96,14.33,25.49c6.5,23.88,1.74,50.16-10.84,71.47c-2.5,4.24-5.34,8.35-9,11.65
		c-4.17,3.76-9.26,6.34-13.69,9.77c-3.51,2.72-6.59,5.96-9.98,8.84c-13.27,11.3-30.75,16.67-48.11,18.22
		c-1.27,0.11-2.67,0.18-3.71-0.57c-2.29-1.64-0.92-5.22,0.63-7.57c7.25-10.98,14.5-21.96,21.75-32.94
		C309.48,376.95,312.05,373.08,315.5,370.07 M285.3,420.28c14.25-1.5,28.85-4,41-11.6c6.68-4.18,12.37-9.75,18.64-14.54
		c4.15-3.17,8.57-6.01,12.47-9.49c8.91-7.94,14.68-18.88,18.47-30.2c5.73-17.13,7.22-36,2.03-53.31
		c-2.86-9.55-7.88-18.69-15.57-25.05c-3,4.97-5.99,9.95-8.99,14.92c-2,3.32-4.06,6.86-4.02,10.73c0.04,3.45,1.77,6.71,1.89,10.16
		c0.14,3.95-1.83,7.62-3.74,11.07c-5.07,9.18-10.15,18.36-15.22,27.54c-2.06,3.73-4.2,7.56-7.5,10.26c-1.18,0.97-2.6,1.93-2.91,3.43
		c-0.78,3.79-4.08,6.42-6.77,9.18c-3.18,3.27-5.71,7.09-8.22,10.89c-6.62,10-13.23,20-19.85,30
		C285.83,416.09,284.58,418.25,285.3,420.28 M233.43,256.9c0.62-1.33,2.64-0.48,3.69,0.55c8.48,8.3,15.23,18.92,25.91,24.09
		c0.82,0.4,1.68,0.77,2.31,1.44c1.55,1.65,1.08,4.26,0.62,6.47c-2.25,10.85-1.72,22.27,1.55,32.86c0.67,2.18-0.63,4.58-2.5,5.89
		c-1.87,1.31-4.19,1.77-6.43,2.18c-12.02,2.21-24.12,3.98-36.27,5.29c-4.73,0.51-9.55,0.95-14.23,0.11c-4.69-0.84-9.31-3.11-12-7.04
		c-2.02-2.95-2.81-6.72-2.15-10.23c0.21-1.1,0.55-2.19,0.47-3.31c-0.67-9.05,2.01-18.32,7.41-25.61
		C210.89,277.31,227.02,270.75,233.43,256.9 M201.78,292.83c-4.51,7.32-5.85,16.15-6.29,24.74c-0.13,2.45-0.18,4.97,0.58,7.3
		c1.54,4.73,6.24,7.87,11.09,8.97c4.85,1.09,9.91,0.49,14.84-0.12c8.6-1.06,17.2-2.13,25.81-3.19c5.9-0.73,12.02-1.53,17.07-4.68
		c0.61-0.38,1.28-0.99,1.09-1.69c-3.48-12.32-3.93-25.48-1.3-38.01c0.3-1.43-1.28-2.45-2.58-3.11c-7.92-4.01-14.02-10.8-19.92-17.43
		c-2.38-2.67-4.76-5.34-7.13-8.02C228.82,272.67,210.33,278.96,201.78,292.83 M360.52,261.21c-0.36-0.72-0.23-1.57-0.1-2.36
		c0.76-4.42,1.52-8.85,2.28-13.27c0.32-1.85,1.96-3.14,3.51-4.2c16.37-11.16,36.5-16.53,56.28-15.57c7.4,0.36,14.88,1.61,21.53,4.87
		c6.65,3.26,12.45,8.71,15.02,15.65c0.77,2.08-0.06,4.49-1.55,6.12c-1.49,1.64-3.54,2.65-5.57,3.53
		c-17.88,7.72-37.97,8.08-57.44,7.73c-10.16-0.18-20.31-0.52-30.46-1.03C362.69,262.62,361.12,262.4,360.52,261.21 M420.34,227.46
		c-18.09-0.44-36.27,4.62-51.53,14.35c-1.91,1.22-3.93,2.73-4.35,4.96c-0.82,4.38-1.64,8.76-2.46,13.14
		c-0.09,0.46-0.01,1.14,0.46,1.14c14.83,0.13,29.65,1.33,44.49,1.08c14.83-0.25,29.84-1.99,43.62-7.49
		c1.92-0.77,3.88-1.65,5.28-3.18c1.4-1.53,2.11-3.87,1.18-5.72c-3.2-6.43-9.09-11.29-15.67-14.17
		C434.78,228.68,427.52,227.63,420.34,227.46 M27.02,291.81c1.22-2.62,3.88-4.21,6.42-5.59c23.24-12.69,48.33-21.57,73.3-30.4
		c8.85-3.13,17.7-6.26,26.56-9.39c8.65-3.06,17.79-6.16,26.82-4.53c6.81,1.23,13.24-2.95,19.42-6.06
		c14.22-7.15,30.98-9.14,46.48-5.51c10.21,2.39,19.88-7.03,30.35-6.5c14.83,0.75,29.66,1.51,44.49,2.26
		c21.48,1.09,43.62,2.34,63,11.66c20.28-14.77,47.09-20.19,71.52-14.46c13.71,3.22,28.44,12.48,28.85,26.55
		c0.4,13.67-12.86,23.65-25.56,28.71c-19.13,7.61-40.38,9.79-60.65,6.22c15.16,27.38,11.86,62.86-4.81,89.35
		c-16.67,26.49-45.17,44.25-75.53,51.83c-4.73,1.18-9.88,2.11-14.36,0.17c-4.48-1.94-7.47-7.9-4.68-11.9
		c15.84-22.7,31.68-45.41,47.51-68.11c7.78-11.16,15.74-22.71,18.57-36.02c-12.13,8.9-22.32,20.43-29.65,33.56
		c-17.49,31.3-52.55,50.07-88.11,54.68c-5.16,0.67-11.76,0.28-13.73-4.54c-1.54-3.77,0.86-7.92,3.34-11.16
		c4.96-6.5,10.63-12.46,16.86-17.74c-15.29,4.14-31.45,3.07-47.26,1.97c-13.92-0.97-27.88-1.94-41.6-4.51
		c-26.8-5.02-52.44-16.18-74.37-32.39c-9.45,20.56-27.47,37.02-48.81,44.56c-5.06,1.79-11.66,2.68-14.95-1.56
		c-1.28-1.65-1.75-3.77-2.07-5.83c-3.93-25.59,13.39-52.74,38.26-59.96c-4.16-0.8-8.49-1.68-11.88-4.23
		C27.37,300.41,25.23,295.66,27.02,291.81 M33.31,288.84c-2.51,1.41-5.3,3.26-5.61,6.12c-0.85,7.76,14.51,6.28,17.09,13.65
		c-24.61,6.09-42.35,32.47-38.72,57.56c0.31,2.13,0.81,4.36,2.27,5.94c2.94,3.17,8.11,2.29,12.18,0.84
		c21.55-7.64,39.65-24.5,48.79-45.46c22.53,16.52,48.79,27.91,76.24,33.08c12.63,2.38,25.47,3.45,38.28,4.48
		c16.49,1.32,33.38,2.53,49.3-1.96c0.86,6.86-6.43,11.47-11.81,15.82s-8.85,14.19-2.56,17.08c1.65,0.76,3.55,0.71,5.37,0.59
		c36.77-2.26,71.81-23.8,90.43-55.59c7.46-12.75,17.61-23.91,29.58-32.56c4.39,2.08,2.42,8.7-0.19,12.8
		c-20.28,31.95-41.58,63.24-63.85,93.83c-2.27,3.11,0.04,7.86,3.56,9.43c3.52,1.57,7.6,0.88,11.35,0.02
		c30.74-7.04,59.76-24.69,76.57-51.37c16.81-26.68,19.77-62.67,3.87-89.9c25.53,1.8,53.11,2.1,74.28-12.29
		c4.73-3.21,9.15-7.3,11.2-12.64c3.39-8.81-0.68-19.22-7.83-25.37c-7.15-6.15-16.75-8.7-26.14-9.64
		c-19.54-1.96-39.67,2.42-56.63,12.31c-3.29,1.92-7.18,4.11-10.67,2.57c-16.47-7.28-34.76-10.39-52.71-8.98
		c-3.91,0.31-7.92,0.82-11.72-0.18c-19.65-5.19-40.85-4.32-60.01,2.45c-5.72,2.02-11.98,0.4-17.99-0.39
		c-15.16-2.01-30.99,1.58-43.8,9.93c-7.72,5.04-17.95,1.51-27.11,2.51c-11.02,1.2-20.21,8.98-30.9,11.87
		C86.82,263.11,59.17,274.38,33.31,288.84 M287.73,349.69c6.38-1.26,12.56-3.49,18.28-6.59c0.53-0.29,1.1-0.59,1.7-0.55
		c1.1,0.08,1.8,1.34,1.68,2.44c-0.12,1.1-0.8,2.03-1.48,2.9c-19.99,25.81-50.88,42.88-83.36,46.08c-2.12,0.21-4.61,0.21-5.93-1.46
		c-1.56-1.97-0.43-4.89,1.03-6.94c5.53-7.83,14.92-12.55,19.49-20.98c1.75-3.23,6.3-3.2,9.97-2.98c10.49,0.64,21.69-1.04,29.76-7.76
		c1.06-0.88,2.06-1.85,3.26-2.53C283.83,350.38,285.81,350.07,287.73,349.69 M279.05,355.89c-9.11,7.09-21.48,8.48-32.99,7.47
		c-1.85-0.16-4.19-0.12-4.98,1.56c-4.68,10.04-17.27,14.66-21.6,24.85c-0.35,0.82,0.25,1.8,1.06,2.19c0.81,0.38,1.75,0.32,2.64,0.25
		c33.68-2.9,65.75-21.07,85.54-48.48c-7.18,4.09-15.07,6.91-23.21,8.3C283.02,352.45,281.06,354.33,279.05,355.89 M303.54,250.36
		c3.15,1.78,5.25,4.92,7.41,7.82c5.26,7.09,11.51,13.44,18.51,18.81c1.86,1.43,0.96,4.38-0.18,6.42
		c-11.22,20.11-30.73,35.44-52.92,41.57c-0.96,0.26-1.97,0.51-2.93,0.26c-1.91-0.52-2.75-2.72-3.22-4.64
		c-2.75-11.06-3.08-22.71-0.98-33.92c0.16-0.87,0.35-1.76,0.88-2.48c0.57-0.78,1.47-1.24,2.32-1.7
		C285.66,275.34,295.01,262.78,303.54,250.36 M329.29,279.27c-9.6-7.63-18.05-16.7-24.98-26.81c-6.17,9.58-13.68,18.3-22.24,25.84
		c-2.94,2.59-6.11,5.09-9.85,6.23c-0.72,0.22-0.98,1.09-1.12,1.83c-2.03,10.57-2.03,21.52,0,32.09c0.23,1.22,0.51,2.48,1.24,3.49
		c0.73,1.01,2.02,1.72,3.22,1.4C298.63,317.21,318.75,300.71,329.29,279.27 M191.01,285.87c1.46,2.07,2.92,4.28,3.22,6.79
		c0.18,1.53-0.07,3.07-0.33,4.58c-0.65,3.83-1.29,7.66-1.93,11.49l-1.06,6.3c-0.69,4.08-1.44,8.32-3.85,11.68
		c-2.53,3.53-6.66,5.67-10.92,6.53c-4.26,0.86-8.66,0.56-12.97-0.02c-10.73-1.45-21.22-4.59-30.97-9.28c-1.85-0.89-4-2.81-2.95-4.57
		c6.65-11.15,10.79-23.79,12.04-36.71c0.25-2.59,2.87-4.18,5.15-5.43c7.35-4.03,14.26-8.85,20.6-14.33c1-0.87,2.27-1.81,3.51-1.38
		c0.56,0.19,0.99,0.63,1.39,1.06C178.85,269.86,185.23,277.65,191.01,285.87 M192.48,296.86c1.18-3.64-1.08-7.43-3.31-10.54
		c-5.7-7.94-11.93-15.51-18.64-22.63c-0.34-0.36-0.92-0.74-1.28-0.4c-5.8,5.49-12.34,10.19-19.39,13.94
		c-3.01,1.6-6.53,3.58-6.89,6.98c-1.38,12.71-5.55,25.1-12.13,36.06c-0.48,0.8,0.57,1.63,1.44,1.98
		c12.15,4.84,24.71,9.73,37.79,9.55c3.47-0.05,7-0.47,10.19-1.86c3.19-1.39,6.02-3.83,7.32-7.05c0.96-2.37,1.05-4.99,1.25-7.55
		C189.32,309.08,190.54,302.85,192.48,296.86 M453.86,263.35c-4.66,5.47-11.06,9.27-17.8,11.76c-6.75,2.49-13.88,3.74-20.99,4.78
		c-8.58,1.26-17.29,2.22-25.93,1.38c-8.64-0.84-17.27-3.61-23.97-9.12c-1-0.82-1.98-1.75-2.44-2.96c-0.46-1.21-0.22-2.77,0.85-3.49
		c19.7,1.05,39.48,2.09,59.11,0.22c9.45-0.9,18.95-2.5,27.68-6.25c1.52-0.65,3.68-1.18,4.49,0.26
		C455.49,261.03,454.69,262.38,453.86,263.35 M454.65,260.01c-23.11,10-49.28,9-74.45,8.11c-4.82-0.17-9.64-0.33-14.46-0.48
		c-0.61-0.02-1.32,0.02-1.66,0.52c5.05,5.97,12.61,9.38,20.31,10.75c7.7,1.36,15.59,0.85,23.37,0.09c8.63-0.84,17.3-2,25.49-4.82
		C441.46,271.36,449.23,266.77,454.65,260.01z M293.09,260.14c-4.98,6.03-10.46,11.67-16.55,16.59c-1.61,1.31-3.33,2.59-5.34,3.13
		c-4.96,1.33-9.82-2.17-13.63-5.61c-7.53-6.79-14.5-14.2-20.8-22.14c-1.07-1.35-2.19-3.06-1.59-4.68c1.52-4.05-3.24-9.22-0.42-12.51
		c0.83-0.97,2.11-1.4,3.33-1.77c16.95-5.12,35.18-5.97,52.54-2.45c1.51,0.31,3.03,0.65,4.41,1.34c4.86,2.42,6.83,8.66,5.83,14
		C299.87,251.38,296.55,255.96,293.09,260.14 M275.12,275.45c7.67-5.99,14.4-13.15,19.91-21.17c3.3-4.82,6.21-11.14,3.39-16.26
		c-2.48-4.5-8.22-5.85-13.32-6.5c-15.23-1.95-30.98-1.64-45.59,3.12c-1.18,0.38-2.39,0.82-3.26,1.71c-0.87,0.89-1.27,2.35-0.59,3.39
		c2.21,3.39-0.1,8.58,2.56,11.64c7.04,8.08,14.12,16.2,22.36,23.07c2.62,2.18,5.77,4.35,9.14,3.84
		C271.75,277.97,273.5,276.72,275.12,275.45 M48.74,311.78c4.69,4.41,10.47,7.64,16.68,9.33c1.98,0.54,1.72,3.42,0.95,5.32
		c-8.1,19.7-25.09,35.08-44.75,43.27c-2.04,0.85-4.17,1.64-6.38,1.67c-2.21,0.03-4.55-0.84-5.76-2.69
		c-1.74-2.68-0.61-6.21,0.56-9.17c0.38-0.97,0.06-2.05-0.19-3.05c-2.34-9.32,1.6-19.33,7.9-26.59c6.3-7.26,14.73-12.28,23-17.18
		C43.24,311.2,46.64,309.8,48.74,311.78 M19.17,368.56c20.92-7.81,38.82-24.38,46.47-45.36c-6.62-1.73-12.79-5.13-17.78-9.81
		c-1.26-1.18-3.3-0.49-4.83,0.29c-4.9,2.49-9.61,5.39-14.04,8.65c-4.77,3.51-9.28,7.48-12.66,12.35s-5.56,10.7-5.36,16.62
		c0.16,4.57,1.67,9.4-0.28,13.53c-0.85,1.8,0.73,4.01,2.65,4.54C15.27,369.9,17.3,369.26,19.17,368.56 M64.19,278.95
		c0.31-0.69,0.99-1.13,1.64-1.53c10.3-6.33,21.35-11.46,32.83-15.24c5.09-1.68,10.42-3.11,15.76-2.61c0.76,0.07,1.57,0.2,2.16,0.68
		c0.94,0.77,1.04,2.23,0.56,3.34c-0.47,1.11-1.4,1.97-2.29,2.78c-9.3,8.47-18.76,17.05-30.06,22.57c-4.34,2.12-9.59,3.73-13.86,1.47
		c-3.19-1.69-5-5.13-6.39-8.46C64.14,281,63.76,279.9,64.19,278.95 M66.39,281.91c1.05,2.31,2.23,4.69,4.28,6.18
		c2.26,1.64,5.3,1.93,8.03,1.35c2.74-0.58,5.24-1.92,7.66-3.33c10.65-6.22,20.41-13.96,28.88-22.91c0.18-0.19,0.36-0.38,0.43-0.63
		c0.21-0.77-0.73-1.33-1.51-1.48c-2.16-0.4-4.37,0.08-6.5,0.62c-14.18,3.55-27.8,9.3-40.23,17c-0.59,0.37-1.23,0.8-1.39,1.47
		C65.89,280.76,66.14,281.36,66.39,281.91 M171.33,244.74c14.09-8.26,30.59-12.35,46.91-11.62c1.53,0.07,3.06,0.18,4.54,0.59
		c5.5,1.53,9.22,7.19,9.58,12.89s-2.13,11.29-5.7,15.75c-3.57,4.46-8.15,7.98-12.67,11.48c-4.52,3.49-9.07,7.07-12.54,11.61
		c-0.79,1.03-1.56,2.14-2.71,2.73s-2.83,0.39-3.4-0.77c-7.05-14.22-22.8-23.66-26.5-39.09
		C168.47,246.78,169.99,245.53,171.33,244.74 M230.35,245.07c-0.33-2.71-1.4-5.42-3.46-7.2c-2.5-2.16-6.02-2.62-9.31-2.79
		c-12.87-0.66-25.89,1.82-37.62,7.16c-3.11,1.42-6.15,3.04-8.78,5.21c-0.34,0.28-0.71,0.68-0.59,1.11
		c4.53,15.23,20.03,24.66,26.85,39.02c3.26-5.28,8.14-9.34,13.05-13.13c4.91-3.79,10.01-7.47,13.95-12.26
		C228.38,257.39,231.11,251.23,230.35,245.07 M116.56,320.32c-7.96-3.71-15.62-8.07-22.88-13.02c-3.17-2.17-6.4-4.6-7.98-8.1
		c-0.89-1.97-1.15-4.39-0.01-6.23c0.8-1.3,2.17-2.12,3.48-2.91c10.49-6.36,20.19-14.03,28.8-22.78c0.86-0.88,2.34-0.31,3.41,0.31
		c2.63,1.51,5.25,3.01,7.88,4.52c2.72,1.56,5.54,3.22,7.22,5.87c2.41,3.82,1.86,8.77,0.84,13.17c-1.77,7.63-4.7,14.95-7.94,22.08
		c-0.91,2-1.86,4.02-3.35,5.64c-1.49,1.62-3.61,2.79-5.8,2.63C118.93,321.4,117.73,320.86,116.56,320.32 M115.55,317.83
		c2.26,1.15,4.91,2.31,7.24,1.3c1.71-0.75,2.73-2.48,3.6-4.13c4.13-7.89,7.24-16.31,9.22-25c0.84-3.7,1.4-7.86-0.68-11.03
		c-1.23-1.88-3.22-3.11-5.14-4.28c-2.94-1.79-5.88-3.58-8.82-5.37c-0.69-0.42-1.66-0.82-2.23-0.24
		c-9.04,9.02-19.18,16.95-30.11,23.55c-1.8,1.09-2.24,3.65-1.51,5.63c0.73,1.98,2.35,3.48,3.97,4.82
		C98.45,309.15,107.04,313.52,115.55,317.83 M338.92,235.14c1.34,0.46,2.73,0.99,3.68,2.03c1.92,2.09,1.45,5.36,0.77,8.12
		c-2.3,9.27-5.75,18.26-10.25,26.69c-0.42,0.78-0.95,1.64-1.82,1.78c-0.8,0.13-1.55-0.4-2.18-0.91
		c-9.35-7.58-17.25-16.94-23.16-27.43c-1.97-3.49,0.39-8.74-2.57-11.45c0.7-2.38,3.73-3.01,6.2-3.11
		C319.52,230.47,329.52,231.93,338.92,235.14 M308.6,232.73c-0.79,0.04-1.62,0.11-2.28,0.55c-0.66,0.44-1.05,1.38-0.64,2.05
		c1.03,1.67,0.75,3.79,0.96,5.73c0.36,3.33,2.2,6.29,4.12,9.03c5.58,7.99,12.2,15.26,19.65,21.56c0.17,0.14,0.36,0.29,0.58,0.27
		c0.29-0.02,0.47-0.33,0.59-0.6c4.39-9.41,8.84-18.98,10.45-29.25c0.17-1.12,0.29-2.36-0.35-3.29c-0.52-0.76-1.43-1.13-2.3-1.45
		C329.58,233.73,319.03,232.14,308.6,232.73 M121.36,261.97c-0.4-0.76-0.72-1.6-0.64-2.45c0.14-1.61,1.56-2.76,2.91-3.65
		c8.03-5.32,17.49-8.23,27.05-9.43c3.4-0.43,6.93-0.64,10.17,0.48c3.24,1.12,6.12,3.85,6.49,7.25c0.27,2.55-0.89,5.09-2.58,7.03
		c-1.69,1.93-3.87,3.36-6.02,4.76l-15.27,9.95c-1.4,0.91-3.57,1.7-4.49,0.29C134.81,269.79,124.96,268.72,121.36,261.97
		 M122.96,261.26c1.88,3.63,6.12,5.18,9.66,7.22c3.05,1.75,5.79,4.05,8.04,6.76c6.77-3.88,13.35-8.11,19.69-12.67
		c2.09-1.51,4.3-3.25,4.91-5.76c0.79-3.28-1.64-6.67-4.73-8.03c-3.09-1.36-6.63-1.14-9.97-0.68c-9.35,1.3-18.53,4.37-26.38,9.62
		c-0.71,0.47-1.46,1.05-1.6,1.89C122.49,260.18,122.7,260.75,122.96,261.26 M112.61,334.28c-1.13,2.09-2.42,4.19-4.36,5.56
		c-4.27,3.01-10.16,1.63-15-0.34c-7.49-3.05-14.7-7.43-19.39-14.01c-0.79-1.1-1.52-2.47-1.08-3.75c0.4-1.15,1.6-1.78,2.67-2.37
		c4.45-2.45,8.27-6.01,11.02-10.28c0.85-1.32,2.87-0.67,4.23,0.11c8.07,4.64,16.15,9.27,24.22,13.9c1.72,0.99,1.25,3.56,0.48,5.38
		C114.56,330.46,113.63,332.39,112.61,334.28 M114.2,326.54c0.15-0.39,0.29-0.83,0.12-1.21c-0.14-0.32-0.46-0.52-0.76-0.69
		c-7.88-4.56-15.76-9.13-23.64-13.69c-0.36-0.21-0.74-0.42-1.15-0.44c-0.79-0.03-1.41,0.63-1.92,1.23c-3.3,3.92-6.84,7.9-11.54,9.95
		c-1.27,0.56-0.56,2.49,0.36,3.54c5.62,6.34,12.99,11.12,21.07,13.65c2.97,0.93,6.31,1.54,9.12,0.19c2.26-1.09,3.77-3.27,5.02-5.44
		C112.16,331.36,113.28,328.99,114.2,326.54 M109.18,343.96c0.04-1.41,1.22-2.48,2.24-3.46c3.2-3.09,5.54-7.05,6.71-11.34
		c0.38-1.39,0.68-2.88,1.68-3.9c1.96-1.99,5.28-1.09,7.88-0.07c6.03,2.38,12.07,4.76,18.1,7.15c1.2,0.47,2.51,1.05,3.07,2.21
		c0.41,0.86,0.31,1.86,0.21,2.81c-0.38,3.37-0.76,6.79-1.99,9.95c-1.23,3.16-3.43,6.09-6.53,7.46c-3.47,1.54-7.48,0.94-11.16,0
		c-6.01-1.53-11.81-3.91-17.18-7.04C110.75,346.87,109.14,345.65,109.18,343.96 M139.81,353.03c2.88-1.27,4.88-4.06,5.92-7.03
		c1.04-2.98,1.25-6.17,1.44-9.31c0.03-0.43,0.05-0.89-0.15-1.27c-0.27-0.52-0.86-0.78-1.4-0.99c-6.77-2.66-13.55-5.32-20.32-7.98
		c-0.61-0.24-1.24-0.48-1.89-0.48c-2.42,0.01-3.47,2.98-4.19,5.29c-1.46,4.68-4.27,8.94-8.01,12.11c-0.75,0.64,0.16,1.79,1.01,2.29
		c5.46,3.25,11.38,5.72,17.53,7.31C133.06,353.83,136.68,354.41,139.81,353.03 M271.09,328.06c2.51-0.49,5.13,0.73,6.84,2.63
		c1.71,1.9,2.63,4.38,3.23,6.87c0.45,1.85,0.74,3.76,0.54,5.65c-0.48,4.49-3.71,8.33-7.6,10.64c-3.89,2.31-8.38,3.33-12.81,4.24
		c-6.47,1.33-13.68,2.36-19.27-1.15c2.19-5.5,4.42-11.46,2.96-17.2c-0.28-1.08-0.66-2.3-0.08-3.24c0.55-0.89,1.72-1.13,2.76-1.28
		c6.28-0.86,12.88-1.28,18.31-4.53C267.63,329.7,269.2,328.43,271.09,328.06 M280.02,342.17c0.06-1.68-0.34-3.35-0.81-4.96
		c-0.98-3.33-2.99-7.06-6.45-7.31c-2.47-0.18-4.61,1.53-6.75,2.77c-5.01,2.9-10.99,3.45-16.74,4.08c-1.37,0.15-3.17,0.88-2.87,2.21
		c1.16,5.11,0.6,10.59-1.56,15.36c-0.35,0.77-0.7,1.8-0.06,2.37c0.3,0.26,0.73,0.32,1.12,0.35c6.7,0.6,13.5-0.01,19.98-1.78
		c3.32-0.91,6.62-2.15,9.31-4.31S279.9,345.62,280.02,342.17 M284.84,341.61c0.18-4.13-1.18-8.32-3.77-11.55
		c-0.72-0.9-0.39-2.3,0.39-3.14c0.79-0.84,1.91-1.25,2.99-1.65c7.11-2.68,13.92-6.18,20.24-10.41c0.9-0.6,1.91-1.25,2.98-1.06
		c0.85,0.15,1.51,0.79,2.11,1.4c0.76,0.76,1.51,1.53,2.27,2.29c2.23,2.25,4.59,4.75,4.94,7.9c0.45,4.06-2.57,7.65-5.7,10.27
		c-6.43,5.4-14.22,9.18-22.44,10.91c-0.87,0.18-1.81,0.33-2.6-0.06C284.64,345.7,284.76,343.42,284.84,341.61 M310.33,334.23
		c2.08-1.68,4.13-3.71,4.64-6.34c0.83-4.31-2.73-8.11-5.99-11.06c-0.72-0.66-1.77-1.35-2.58-0.81c-6.97,4.59-14.42,8.44-22.19,11.46
		c-0.87,0.34-1.93,1.17-1.43,1.95c2.98,4.64,4.26,10.34,3.54,15.81C295.07,343.67,303.42,339.84,310.33,334.23 M239.61,336.04
		c2.54,1.94,2.78,5.64,2.59,8.83c-0.17,2.8-0.53,5.65-1.78,8.16c-1.94,3.89-5.85,6.5-9.99,7.82c-4.14,1.32-8.54,1.53-12.88,1.72
		c-2.01,0.09-4.01,0.18-6.02,0.27c-1.43,0.06-2.93,0.12-4.24-0.47c-1.31-0.58-2.37-2.01-2.03-3.41c1.2-4.96,2.4-10.12,1.31-15.1
		c-0.21-0.96-0.51-1.94-0.36-2.92c0.15-0.98,0.92-1.95,1.9-1.92C218.69,339.3,229.29,338.29,239.61,336.04 M236.01,355.85
		c3.95-3.58,4.7-9.51,4.33-14.83c-0.1-1.49-0.92-3.47-2.37-3.1c-9.47,2.42-19.32,3.37-29.08,2.8c-0.83-0.05-0.98,1.17-0.83,1.99
		c1.02,5.79,0.6,11.83-1.21,17.42c-0.16,0.49,0.55,0.76,1.07,0.77c7.33,0.2,14.81,0.39,21.81-1.78
		C232,358.42,234.24,357.45,236.01,355.85 M193.83,331.13c1.53,2.1,3.66,3.76,6.08,4.72c3.1,1.23,3.58,5.35,3.57,8.69
		c-0.01,2.27-0.02,4.55-0.03,6.82c-0.02,4.37-0.49,9.56-4.29,11.71c-1.72,0.97-3.79,1.07-5.76,0.95c-4.41-0.28-8.7-1.55-12.94-2.82
		c-1.17-0.35-2.38-0.72-3.28-1.55c-0.9-0.83-1.37-2.25-0.74-3.3c3.31-5.54,4.25-12.44,2.53-18.65c-0.25-0.9,0.31-1.87,1.06-2.43
		c0.75-0.56,1.67-0.83,2.54-1.18c1.78-0.72,3.4-1.84,4.71-3.25c0.99-1.06,2.05-2.41,3.5-2.3
		C192.15,328.63,193.01,330.01,193.83,331.13 M200.68,338.82c-0.48-0.68-1.27-1.05-2.01-1.44c-3.18-1.69-5.89-4.25-7.76-7.33
		c-2.25,2.55-5.12,4.57-8.28,5.83c-1.09,0.43-1.7,1.63-1.83,2.79c-0.13,1.16,0.13,2.33,0.31,3.48c0.83,5.56-0.46,11.4-3.57,16.09
		c4.62,1.72,9.39,3,14.25,3.84c2.44,0.42,5.24,0.63,7.11-0.99c1.27-1.11,1.8-2.83,2.16-4.48c1.16-5.25,1.24-10.74,0.23-16.03
		C201.18,339.96,201.04,339.33,200.68,338.82 M311.5,310.31c0.24-0.89,0.99-1.54,1.7-2.13c5.51-4.65,10.29-10.16,14.12-16.27
		c0.49-0.78,0.99-1.6,1.75-2.1c0.77-0.51,1.89-0.61,2.55,0.03c1.86,1.79,4.89,1.56,7.12,2.86c2.35,1.37,3.45,4.31,3.28,7.03
		c-0.17,2.72-1.41,5.25-2.82,7.58c-3.69,6.12-8.71,11.43-14.62,15.46c-1.08,0.73-2.47,1.44-3.61,0.82
		c-0.43-0.23-0.75-0.62-1.05-0.99c-2.33-2.86-4.66-5.72-6.99-8.58C312.07,312.94,311.15,311.64,311.5,310.31 M322.88,321.7
		c6.59-4.22,12.06-10.17,15.71-17.09c0.8-1.52,1.53-3.11,1.71-4.82c0.19-1.71-0.24-3.55-1.46-4.75c-2.31-2.26-6.52-1.56-8.72-3.93
		c-4.51,7.2-10.08,13.73-16.48,19.32c-0.61,0.53-0.11,1.52,0.4,2.14l7.35,8.89c0.19,0.22,0.4,0.46,0.69,0.51
		C322.36,322.02,322.63,321.86,322.88,321.7 M47.12,304.99c0.05-2.17,2.68-3.12,4.77-3.69c5.13-1.41,9.95-3.91,14.06-7.29
		c3.28-2.7,8.53,1.96,12.3-0.01c1.29-0.67,2.93,0.26,3.62,1.53c0.7,1.28,0.75,2.79,0.99,4.22c0.24,1.44,0.77,2.97,2.02,3.71
		c1.18,0.69,0.46,2.5-0.37,3.59c-2.06,2.69-4.17,5.38-6.79,7.52c-2.62,2.14-5.84,3.71-9.22,3.79c-3.67,0.08-7.14-1.56-10.33-3.37
		C53.77,312.51,49.43,309.46,47.12,304.99 M48.96,305.06c3.8,4.82,8.98,8.54,14.77,10.6c1.69,0.6,3.46,1.07,5.26,0.98
		c4.53-0.22,8.08-3.81,11.15-7.15c0.88-0.97,1.77-1.93,2.65-2.89c0.53-0.58,1.07-1.45,0.58-2.06c-1.64-2.01-2.64-4.53-2.83-7.12
		c-0.05-0.76-0.39-1.83-1.13-1.65c-3.06,0.72-6.34,0.47-9.26-0.69c-1.68-0.67-3.45,0.6-4.89,1.69c-3.85,2.92-8.27,5.09-12.93,6.37
		C51.04,303.48,49.58,303.88,48.96,305.06 M170.71,336.36c1.36-0.11,2.86-0.25,3.95,0.57c0.93,0.7,1.29,1.92,1.52,3.06
		c1.24,5.94,0.47,12.81-3.96,16.96c-2.73,2.55-6.53,3.75-10.26,3.89c-3.73,0.14-7.44-0.7-11.02-1.77c-1.29-0.38-2.61-0.83-3.56-1.78
		c-0.94-0.95-1.35-2.57-0.56-3.65c3.05-4.18,4.75-9.33,4.79-14.51c0.01-1.32-0.01-2.82,0.96-3.71c1.13-1.04,2.92-0.64,4.4-0.25
		C161.45,336.33,166.11,336.73,170.71,336.36 M173.05,353.04c1.98-3.43,1.84-7.63,1.64-11.58c-0.07-1.38-0.6-3.21-1.98-3.14
		c-5.73,0.31-11.51-0.24-17.08-1.62c-0.84-0.21-1.7,0.43-2.06,1.23c-0.36,0.79-0.35,1.69-0.37,2.56
		c-0.15,5.36-2.01,10.66-5.24,14.94c0.75,0.87,1.88,1.32,2.96,1.71c3.84,1.37,7.93,2.35,11.98,1.92
		C166.96,358.62,171.01,356.57,173.05,353.04 M344.62,292.65c-1.17,0.08-2.2-0.71-3.16-1.39c-2.67-1.88-5.75-3.16-8.96-3.73
		c-1.11-0.2-1-1.82-0.6-2.87c2.51-6.6,5.01-13.21,7.52-19.81c0.83-2.19,1.94-4.65,4.18-5.32c0.89-0.26,1.84-0.2,2.77-0.13
		c1.84,0.14,3.68,0.27,5.52,0.41c0.8,0.06,1.61,0.12,2.34,0.45c1.04,0.47,1.79,1.42,2.33,2.42c2.91,5.38,0.9,12.08-1.97,17.48
		c-1.98,3.73-4.34,7.25-7.03,10.49C346.77,291.59,345.84,292.57,344.62,292.65 M343.01,290.16c0.36,0.31,0.75,0.65,1.22,0.68
		c0.64,0.04,1.15-0.49,1.56-0.98c2.62-3.14,4.93-6.52,6.92-10.09c2.2-3.96,4.02-8.42,3.34-12.9c-0.33-2.16-1.4-4.39-3.4-5.26
		c-2.2-0.96-4.79-0.01-7.14-0.48c-1.97-0.4-3.36,1.85-4.1,3.72c-2.81,7.13-5.51,14.31-8.09,21.53
		C336.85,286.5,340.33,287.85,343.01,290.16 M64.24,288.1c0.33,0.82,0.62,1.71,0.39,2.56c-0.25,0.94-1.07,1.59-1.86,2.15
		c-5.91,4.2-12.88,6.88-20.08,7.72c-2.15,0.25-4.36,0.33-6.44-0.29c-2.07-0.62-4-2.04-4.77-4.05c-0.28-0.73-0.4-1.54-0.21-2.3
		c0.37-1.5,1.82-2.45,3.16-3.22c7.89-4.51,16.39-7.97,25.18-10.26C61.56,282.7,63.13,285.31,64.24,288.1 M33.36,293.95
		c-0.58,0.93-0.31,2.22,0.41,3.05c0.71,0.83,1.78,1.29,2.84,1.57c2.91,0.76,6,0.4,8.94-0.25c5.9-1.31,11.55-3.75,16.54-7.16
		c0.4-0.28,0.84-0.62,0.89-1.11c0.03-0.3-0.11-0.6-0.24-0.88c-0.98-2.04-1.96-4.08-2.94-6.12c-0.15-0.32-0.42-0.69-0.76-0.59
		c-8.49,2.64-17.13,5.36-24.47,10.38C34.11,293.16,33.65,293.49,33.36,293.95 M345.58,248.96c0.61-2.27,0.92-4.63,0.96-6.98
		c0.02-1.4,0.06-3.04,1.19-3.85c1.52-1.09,3.66,0.2,5.49-0.2c1.74-0.38,3.56,0.59,4.65,2c2.26,2.92,1.79,7.03,1.2,10.67
		c-0.16,1.02-0.33,2.03-0.49,3.05c-0.19,1.2-0.46,2.52-1.43,3.25c-0.98,0.73-2.36,0.61-3.53,0.25c-1.17-0.36-2.31-0.92-3.53-0.95
		c-0.62-0.01-1.23,0.11-1.85,0.12c-1.36,0.03-2.73-0.51-3.7-1.47c-0.22-0.22-0.43-0.47-0.48-0.77c-0.06-0.31,0.05-0.63,0.15-0.93
		C344.7,251.78,345.2,250.39,345.58,248.96 M355.27,255.53c0.59,0.16,1.02-0.55,1.2-1.14c0.86-2.75,1.31-5.62,1.32-8.51
		c0.01-1.5-0.13-3.09-1-4.31c-1.2-1.67-3.44-2.19-5.49-2.39c-1.14-0.11-2.71,0.19-2.75,1.34c-0.17,4.79-1.13,9.55-2.84,14.03
		C348.92,254.38,352.16,254.71,355.27,255.53"/>
	<path class="st0" d="M512.17,284.17c1.6-4.39,3.1-8.73,4.79-12.99c1.75-4.42,3.67-8.78,5.53-13.15c0.94-2.22,1.84-4.48,2.9-6.64
		c1-2.04,2.14-4.01,3.33-5.95c2.26-3.71,4.43-7.49,6.96-11.01c3.01-4.18,6.3-8.16,9.57-12.15c2.11-2.58,4.3-5.13,6.64-7.51
		c2.08-2.12,4.54-3.86,6.63-5.98c4.03-4.09,8.61-7.5,13.31-10.72c3.6-2.46,7.47-4.51,11.23-6.73c2-1.18,3.99-2.38,6.04-3.47
		c2.2-1.17,4.4-2.38,6.71-3.3c4.78-1.92,9.56-3.86,14.46-5.43c6.85-2.19,13.89-3.49,21.14-3.32c0.29,0.01,0.58-0.21,0.88-0.32
		c-0.17-0.27-0.3-0.57-0.5-0.79c-1.15-1.24-2.12-2.79-3.52-3.6c-2.22-1.28-4.66-2.4-7.14-2.97c-6.2-1.42-12.51-1.27-18.81-0.56
		c-3.7,0.42-7.44,0.65-11.08,1.36c-7.26,1.41-14.61,2.26-21.73,4.46c-5.62,1.73-11.17,3.61-16.62,5.79c-2.5,1-4.85,2.33-7.3,3.46
		c-5.11,2.36-10.23,4.86-16.06,4.47c-3.03-0.2-5.58-1.65-7.8-3.79c-1.53-1.48-2.72-3.17-3.36-5.13c-0.77-2.35-1.18-4.81-0.36-7.29
		c0.65-1.98,1.04-4.09,1.94-5.95c1.7-3.49,3.99-6.63,6.58-9.54c2.4-2.69,5.04-5.14,7.61-7.66c4.2-4.11,9.11-7.25,13.79-10.7
		c2.01-1.48,4.42-2.53,6.79-3.4c4.77-1.75,9.61-3.34,14.48-4.82c3.02-0.92,6.14-1.53,9.23-2.23c3.69-0.83,7.37-1.68,11.08-2.36
		c8.8-1.61,17.68-2.71,26.63-2.89c4.77-0.09,9.56,0.3,14.34,0.61c2.69,0.18,5.37,0.55,8.03,1.01c4.77,0.82,9.39,2.2,13.85,4.12
		c3.32,1.43,6.37,3.3,9.16,5.55c1.88,1.51,3.55,3.29,5.2,5.06c1.32,1.42,2.59,2.91,3.66,4.52c1.67,2.51,3.13,5.14,4.39,7.92
		c2.07,4.55,3.55,9.25,4.07,14.17c0.37,3.51,0.46,7.09,0.2,10.6c-0.23,3.12-1.07,6.2-1.71,9.29c-0.24,1.18,0.02,1.7,1.26,2.07
		c3.51,1.03,6.97,2.26,10.44,3.4c6.76,2.22,13.27,5.02,19.53,8.4c2.53,1.37,4.97,2.92,7.43,4.41c0.96,0.58,1.83,0.92,2.77-0.1
		c1.89-2.05,3.89-4,5.76-6.07c3.85-4.25,6.7-9.22,9.78-14.01c1.71-2.66,3.07-5.54,4.7-8.26c2.23-3.73,4.46-7.46,6.9-11.05
		c1.97-2.9,4.19-5.64,6.41-8.36c0.98-1.2,2.23-2.18,3.41-3.21c1.3-1.13,2.55-2.37,4.01-3.25c2.8-1.68,5.67-3.27,8.62-4.68
		c4.34-2.07,9.01-3.14,13.75-3.68c2.92-0.33,5.89-0.32,8.84-0.28c2.14,0.03,4.3,0.22,6.42,0.57c6.63,1.1,12.99,3.09,18.76,6.58
		c2.78,1.68,5.44,3.59,7.97,5.63c1.5,1.21,2.65,2.86,3.93,4.34c2.27,2.62,4.08,5.56,5.44,8.73c2.2,5.14,3.25,10.52,3.18,16.15
		c-0.1,7.85-2.34,15.1-5.98,21.94c-2.19,4.11-4.89,7.9-8.1,11.33c-2.61,2.79-5.21,5.55-8.34,7.77c-1.95,1.38-3.75,2.99-5.79,4.21
		c-2.42,1.46-4.97,2.74-7.56,3.87c-7.03,3.08-14.53,4.41-22.02,5.8c-4.19,0.78-8.41,1.52-12.5,2.7c-3.25,0.95-6.34,2.48-9.45,3.87
		c-1.49,0.67-2.84,1.68-4.29,2.46c-1.11,0.6-1.19,1.59-0.9,2.53c1.76,5.66,2.49,11.49,2.81,17.37c0.3,5.58,0.51,11.18,0.69,16.77
		c0.05,1.4-0.12,2.8-0.24,4.2c-0.11,1.36,0.19,1.78,1.47,1.75c3.16-0.07,6.33-0.45,9.46-0.2c3.13,0.25,6.27,0.88,9.3,1.75
		c3.54,1.01,6.91,2.57,9.87,4.82c1.96,1.49,3.89,3.03,5.71,4.67c1.49,1.35,3,2.75,4.17,4.37c1.5,2.05,2.72,4.3,3.96,6.52
		c0.98,1.78,1.89,3.61,2.68,5.48c1.42,3.34,2.41,6.82,3.15,10.38c0.82,3.94,1.49,7.89,1.54,11.91c0.04,3.36,0.06,6.75-0.24,10.09
		c-0.33,3.66-0.74,7.37-1.66,10.91c-1.21,4.71-2.62,9.42-4.54,13.88c-2.18,5.07-4.93,9.9-7.61,14.73c-1.73,3.12-3.82,6.04-5.7,9.08
		c-1.94,3.14-3.78,6.35-5.74,9.47c-3.26,5.19-6.54,10.37-9.89,15.51c-1.8,2.76-3.66,5.49-5.7,8.08c-1.88,2.4-3.92,4.71-6.09,6.85
		c-2.66,2.62-5.37,5.24-8.36,7.46c-3.21,2.38-6.79,4.3-10.7,5.31c-1.92,0.5-4.02,0.52-6.02,0.46c-5.26-0.16-10.13-1.7-14.75-4.22
		c-3.09-1.68-5.53-3.99-7.32-6.94c-2.2-3.63-1.47-8.9,1.29-12.39c1.67-2.12,3.47-4.07,5.59-5.73c2.8-2.21,5.6-4.42,8.45-6.56
		c1.55-1.16,3.24-2.15,4.82-3.27c3.72-2.65,6.69-5.98,8.83-10.03c2.26-4.28,4.83-8.42,6.74-12.84c2.24-5.19,4.08-10.58,5.8-15.97
		c1.05-3.29,1.76-6.72,2.28-10.13c0.69-4.56,0.81-9.19-0.18-13.74c-0.79-3.67-2.33-7.05-4.92-9.79c-1.2-1.27-2.7-2.25-4.11-3.3
		c-0.95-0.71-1.5-0.13-1.92,0.73c-1.91,3.97-3.67,8.01-5.77,11.88c-2.25,4.13-4.7,8.16-7.28,12.1c-2.72,4.15-5.61,8.2-8.59,12.17
		c-1.63,2.17-3.6,4.1-5.43,6.12c-1.04,1.14-2.11,2.24-3.18,3.34c-1.51,1.56-2.96,3.18-4.55,4.65c-1.85,1.71-3.8,3.32-5.75,4.93
		c-1.97,1.62-3.91,3.32-6.02,4.75c-3.1,2.09-6.07,4.37-9.56,5.85c-2.94,1.25-5.68,2.97-8.65,4.13c-3.94,1.54-7.98,2.86-12.03,4.06
		c-6.34,1.89-12.87,2.82-19.45,3.55c-8.82,0.98-17.66,0.78-26.5,0.93c-3.02,0.05-6.05,0.16-9.07,0.39c-0.93,0.07-1.68,0.5-1.64,1.88
		c0.12,3.65-1.2,7.04-2.56,10.34c-1.13,2.75-2.37,5.48-3.83,8.07c-1.97,3.5-4.13,6.89-6.31,10.27c-1.61,2.49-3.25,4.99-5.09,7.3
		c-2.89,3.63-5.97,7.12-8.97,10.67c-1.43,1.7-2.79,3.46-4.3,5.08c-1.49,1.59-3.08,3.12-4.74,4.54c-3.42,2.94-6.79,5.96-10.42,8.63
		c-2.43,1.79-5.15,3.18-8.08,4.22c-2.22,0.78-4.4,1.51-6.76,1.6c-4.11,0.16-7.68-1.05-10.64-4.03c-2.85-2.88-4.58-6.32-5.91-10.12
		c-2.22-6.38-3-12.9-2.9-19.62c0.07-4.78,0.83-9.38,3.04-13.63c1.57-3.02,3.55-5.8,6.01-8.17c3.16-3.05,6.28-6.14,9.89-8.72
		c2.98-2.12,5.71-4.59,8.54-6.93c0.24-0.2,0.34-0.54,0.51-0.82c-0.3-0.12-0.59-0.3-0.9-0.35c-3.51-0.54-7.02-1.04-10.53-1.59
		c-1.71-0.27-3.42-0.58-5.11-0.95c-4.14-0.9-8.26-1.85-12.39-2.79c-3.21-0.73-6.43-1.41-9.62-2.2c-4.78-1.18-9.63-2.17-14.04-4.53
		c-0.47-0.25-0.98-0.55-1.48-0.58c-1.64-0.09-2.38-1.38-2.87-2.51c-1.37-3.18-2.73-6.42-3.6-9.76c-0.83-3.18-1.28-6.51-1.45-9.79
		c-0.26-5.21-0.25-10.44-0.12-15.66c0.08-3.39,0.57-6.77,0.92-10.15c0.36-3.49,0.78-6.98,1.19-10.46c0.05-0.41,0.25-0.8,0.35-1.2
		c0.07-0.29,0.19-0.8,0.1-0.85c-0.29-0.15-0.7-0.25-1-0.16c-1.52,0.45-3.07,0.86-4.52,1.49c-3.15,1.36-6.27,2.78-9.35,4.29
		c-2.26,1.1-4.39,2.47-6.65,3.56c-4.28,2.06-8.63,4.06-13.32,4.92c-5.37,0.98-10.7,0.43-15.94-1.15c-4.25-1.28-8.19-3.11-11.76-5.73
		c-2.95-2.17-5.81-4.48-7.78-7.58c-2.94-4.61-3.73-9.54-1.46-14.75c1.53-3.5,3.69-6.51,6.61-8.95c2.81-2.35,5.54-4.84,8.55-6.91
		c2.83-1.95,5.94-3.51,9.01-5.08c3.72-1.9,7.44-3.88,11.33-5.39c5.27-2.05,10.66-3.84,16.07-5.47c3.61-1.09,7.33-1.8,11.04-2.52
		c3.49-0.68,7.04-0.59,10.59-0.36c2.52,0.16,4.89,0.62,7.13,1.83c1.09,0.59,1.47,0.2,1.84-1.04
		C510.28,289.74,511.24,287.01,512.17,284.17 M534.36,469.83c0.73,2.02,1.54,4.01,2.17,6.06c0.63,2.04,1.93,3.65,3.28,5.18
		c1.04,1.17,2.35,2.3,3.78,2.87c1.88,0.75,3.97,1.1,6,1.3c1.39,0.13,2.87-0.17,4.24-0.51c1.04-0.26,1.94-1.08,2.98-1.32
		c1.22-0.27,2.28-0.59,3.21-1.51c0.56-0.55,1.47-0.74,2.2-1.13c0.81-0.43,1.62-0.86,2.38-1.35c1.45-0.95,2.87-1.94,4.29-2.92
		c0.27-0.18,0.53-0.39,0.75-0.62c1.11-1.19,2.17-2.44,3.32-3.58c0.46-0.45,1.24-0.58,1.68-1.04c1.54-1.58,3.01-3.23,4.48-4.88
		c0.44-0.49,0.78-1.06,1.22-1.54c1.33-1.45,2.72-2.84,4.02-4.31c1.34-1.51,2.64-3.04,3.89-4.62c1.47-1.86,2.84-3.78,4.28-5.66
		c0.72-0.94,1.57-1.8,2.24-2.77c0.71-1.03,1.22-2.21,1.92-3.25c1.02-1.52,2.22-2.93,3.19-4.48c0.95-1.51,1.72-3.13,2.55-4.71
		c1.21-2.3,2.39-4.62,3.6-6.93c2.11-4.01,3.05-8.33,3.54-12.79c0.05-0.45-0.12-1.19,0.09-1.31c0.96-0.57,2.01-1.29,3.06-1.37
		c3.43-0.27,6.88-0.3,10.33-0.39c2.58-0.07,5.16-0.13,7.74-0.16c2.5-0.03,5,0.01,7.51-0.02c1.74-0.02,3.49-0.03,5.23-0.17
		c1.75-0.15,3.48-0.48,5.22-0.7c1.79-0.23,3.58-0.42,5.37-0.62c0.69-0.08,1.4-0.08,2.07-0.24c1.66-0.38,3.3-0.86,4.96-1.24
		c2.09-0.48,4.2-0.89,6.3-1.33c0.56-0.12,1.12-0.19,1.68-0.32c0.83-0.19,1.68-0.35,2.47-0.65c1.42-0.54,2.79-1.22,4.21-1.77
		c2.03-0.79,4.08-1.54,6.14-2.24c1.37-0.47,2.37-1.66,3.97-1.75c0.72-0.04,1.42-0.73,2.12-1.15c0.8-0.49,1.54-1.06,2.36-1.5
		c0.88-0.48,1.89-0.75,2.72-1.3c0.86-0.56,1.54-1.39,2.36-2.02c2.1-1.6,4.23-3.14,6.35-4.71c1-0.74,2.06-1.41,2.99-2.24
		c1.62-1.44,3.15-2.97,4.72-4.45c0.59-0.56,1.24-1.07,1.8-1.67c2.13-2.31,4.24-4.65,6.35-6.98c1-1.11,2.26-1.97,2.91-3.42
		c0.31-0.68,1-1.19,1.49-1.8c0.97-1.22,1.95-2.42,2.86-3.68c1.63-2.28,3.24-4.58,4.8-6.91c1.38-2.06,2.75-4.12,4.01-6.26
		c1.76-2.97,3.43-5.99,5.1-9.01c0.92-1.67,1.81-3.37,2.59-5.12c0.63-1.39,1.02-2.88,1.62-4.29c0.43-1,1.01-1.7,2.41-1.48
		c2.19,0.35,3.8,1.57,5.31,3c0.61,0.58,1.01,1.36,1.54,2.02c0.92,1.13,2.1,2.12,2.76,3.39c1.99,3.85,2.51,8.1,2.74,12.35
		c0.11,2.07-0.25,4.17-0.52,6.24c-0.41,3.17-0.73,6.38-1.46,9.48c-0.79,3.37-1.87,6.69-3.05,9.95c-0.92,2.57-2.17,5.03-3.28,7.54
		c-0.91,2.05-1.76,4.14-2.78,6.15c-1.32,2.61-2.7,5.2-4.21,7.7c-1.66,2.75-2.85,5.84-5.81,7.66c-1.47,0.9-2.68,2.21-4.06,3.27
		c-1.75,1.35-3.52,2.68-5.33,3.95c-4.77,3.35-9.27,6.98-12.93,11.56c-1.66,2.08-2.7,4.55-2.05,7.14c0.55,2.2,0.97,4.68,3.25,6.07
		c0.49,0.3,0.79,0.89,1.26,1.21c1.89,1.26,3.76,2.57,5.76,3.64c1.56,0.84,3.28,1.33,5.04,1.79c2.49,0.65,5.03,0.93,7.52,0.99
		c3.43,0.08,6.64-1.33,9.79-2.57c1.56-0.61,2.81-1.94,4.31-2.75c1.7-0.91,2.8-2.49,4.33-3.57c0.68-0.48,1.47-0.85,2.04-1.44
		c1.64-1.71,3.23-3.47,4.79-5.27c1.71-1.97,3.41-3.94,5-5.99c1.12-1.44,2.02-3.05,3.07-4.54c1.19-1.7,2.51-3.32,3.65-5.05
		c1.4-2.14,2.67-4.36,4.01-6.54c1.15-1.87,2.36-3.7,3.46-5.59c0.88-1.51,1.54-3.15,2.45-4.64c1.7-2.77,3.51-5.47,5.28-8.19
		c0.68-1.06,1.38-2.11,2.06-3.17c0.89-1.36,1.83-2.69,2.64-4.1c1.03-1.8,1.98-3.64,2.9-5.5c1.32-2.67,2.64-5.34,3.83-8.07
		c0.79-1.82,1.45-3.71,1.97-5.63c1.03-3.77,2.12-7.54,2.79-11.37c0.63-3.55,0.96-7.19,1.05-10.79c0.1-3.59-0.11-7.21-0.45-10.8
		c-0.26-2.79-0.68-5.61-1.47-8.28c-1.04-3.53-1.95-7.13-3.69-10.42c-0.81-1.53-1.39-3.19-2.22-4.71c-0.76-1.38-1.94-2.56-2.52-3.99
		c-0.92-2.27-3.02-3.4-4.44-5.16c-0.6-0.74-1.67-1.09-2.26-1.98c-0.28-0.42-0.77-0.75-1.22-1.02c-0.95-0.55-2.13-0.83-2.88-1.56
		c-1.77-1.75-4.07-2.46-6.24-3.34c-3.12-1.27-6.43-2.09-9.82-2.24c-3.72-0.17-7.45-0.12-11.18-0.07c-1.54,0.02-2.76-0.76-2.86-2.16
		c-0.07-1.04-0.03-2.09,0-3.14c0.03-0.94,0.19-1.87,0.17-2.81c-0.06-3.07-0.16-6.15-0.26-9.22c-0.07-2.03-0.08-4.07-0.25-6.09
		c-0.22-2.61-0.56-5.21-0.88-7.81c-0.24-1.99-0.43-3.99-0.84-5.94c-0.35-1.66-0.99-3.26-1.5-4.9c-0.34-1.1,0.64-3.39,2.09-3.58
		c0.39-0.05,0.78-0.3,1.12-0.54c0.96-0.67,1.83-1.5,2.85-2.06c1.64-0.91,3.34-1.74,5.08-2.45c1.73-0.71,3.52-1.29,5.32-1.82
		c1.05-0.31,2.16-0.37,3.23-0.62c1.07-0.25,2.1-0.67,3.17-0.88c1.36-0.26,2.76-0.32,4.12-0.58c1.99-0.39,3.96-0.9,5.95-1.31
		c2.11-0.43,4.25-0.72,6.34-1.23c2.42-0.59,4.8-1.33,7.19-2.04c1.14-0.34,2.3-0.7,3.38-1.19c1.9-0.86,3.77-1.79,5.63-2.75
		c0.48-0.25,0.82-0.77,1.3-1.03c1.98-1.07,4.21-1.68,5.87-3.35c0.46-0.46,1.27-0.56,1.73-1.02c1.78-1.78,3.5-3.63,5.22-5.48
		c1.52-1.62,3.07-3.22,4.5-4.93c0.8-0.96,1.37-2.11,2.03-3.18c1.41-2.28,3.03-4.46,4.15-6.88c1.33-2.88,2.49-5.91,3.22-8.99
		c0.86-3.61,1.52-7.33,1.64-11.02c0.16-4.8-1-9.48-2.72-13.98c-0.32-0.84-0.36-1.95-0.94-2.49c-1.2-1.12-1.48-2.66-2.25-3.96
		c-0.35-0.6-0.68-1.23-1.14-1.74c-1.11-1.25-2.54-2.29-3.37-3.69c-0.88-1.5-2.38-2.07-3.52-3.15c-0.98-0.93-2.31-1.5-3.49-2.2
		c-1.88-1.13-3.7-2.39-5.67-3.32c-2.26-1.07-4.64-1.9-7.01-2.72c-1.67-0.57-3.4-1.06-5.13-1.38c-4.27-0.79-8.57-1.29-12.91-0.99
		c-3.23,0.22-6.51,0.37-9.65,1.06c-2.96,0.66-5.82,1.87-8.64,3.05c-2.37,0.99-4.72,2.13-6.9,3.49c-1.52,0.95-2.71,2.43-4.1,3.6
		c-2.47,2.08-4.67,4.38-6.73,6.89c-3.21,3.89-5.88,8.11-8.42,12.43c-2.2,3.74-4.37,7.5-6.62,11.22c-1.57,2.61-3.18,5.2-4.9,7.71
		c-1.78,2.6-3.7,5.11-5.62,7.61c-0.83,1.08-1.82,2.03-2.75,3.04c-0.36,0.39-0.72,0.82-1.15,1.12c-0.62,0.44-1.49,0.65-1.92,1.21
		c-1.02,1.33-2.22,1-3.31,0.44c-2.24-1.14-4.39-2.46-6.58-3.7c-1.73-0.98-3.4-2.09-5.21-2.9c-3.52-1.58-7.11-3-10.68-4.45
		c-2.14-0.87-4.29-1.73-6.47-2.46c-2.46-0.83-4.97-1.49-7.45-2.27c-1.07-0.34-2.22-0.61-3.12-1.22c-1.31-0.89-1.34-1.88-0.68-3.78
		c1.33-3.83,1.81-7.81,1.69-11.84c-0.09-3.08-0.43-6.15-0.73-9.23c-0.12-1.25-0.26-2.54-0.66-3.72c-0.98-2.82-2.07-5.6-3.22-8.36
		c-0.72-1.73-1.51-3.44-2.49-5.03c-0.53-0.87-1.43-1.46-1.64-2.61c-0.14-0.76-0.59-1.57-1.14-2.12c-1.97-2.01-3.97-4.01-6.11-5.83
		c-1.51-1.29-3.2-2.39-4.92-3.38c-1.83-1.06-3.76-1.95-5.7-2.8c-4.34-1.91-8.86-3.21-13.56-3.87c-2.15-0.3-4.31-0.57-6.47-0.77
		c-2.41-0.23-4.84-0.41-7.26-0.52c-2.26-0.1-4.53-0.12-6.79-0.08c-2.86,0.05-5.72,0.12-8.58,0.34c-3.31,0.25-6.6,0.66-9.9,1.04
		c-2.23,0.26-4.47,0.51-6.68,0.9c-2.2,0.39-4.36,0.95-6.54,1.45c-3.52,0.82-7.04,1.64-10.55,2.48c-2.68,0.65-5.37,1.3-8.03,2.01
		c-2.43,0.65-4.9,1.23-7.24,2.12c-2.51,0.96-4.88,2.25-7.32,3.39c-3.14,1.47-6.21,3.04-8.89,5.27c-1.1,0.92-2.18,1.85-3.29,2.76
		c-0.52,0.43-1.12,0.76-1.61,1.21c-1.75,1.59-3.47,3.22-5.21,4.82c-0.17,0.16-0.44,0.23-0.6,0.41c-1.4,1.58-2.7,3.27-4.2,4.76
		c-2.66,2.62-4.88,5.6-6.5,8.88c-1.56,3.17-3.18,6.51-2.31,10.32c0.27,1.19,0.27,2.49,0.77,3.56c0.48,1.02,1.67,1.69,2.18,2.71
		c0.78,1.53,2.27,2.07,3.55,2.73c2.66,1.35,5.56,1.54,8.46,0.73c2.27-0.64,4.7-1.03,6.71-2.15c1.65-0.92,3.5-1.28,5.06-2.3
		c0.29-0.19,0.43-0.66,0.73-0.79c1.55-0.67,3.15-1.25,4.7-1.92c1.61-0.68,3.14-1.62,4.8-2.08c0.88-0.24,1.7-0.91,2.43-0.87
		c1,0.05,1.57-0.41,2.31-0.79c0.8-0.41,1.68-0.66,2.55-0.92c1.01-0.31,2.03-0.59,3.05-0.83c0.7-0.17,1.6-0.04,2.11-0.44
		c1.34-1.04,3.04-0.69,4.45-1.39c0.71-0.35,1.56-0.43,2.35-0.62c0.95-0.24,1.9-0.53,2.86-0.68c0.91-0.14,1.84-0.11,2.76-0.21
		c0.6-0.06,1.19-0.19,1.78-0.33c1.4-0.32,2.78-0.72,4.19-0.99c1.14-0.22,2.3-0.28,3.45-0.45c3.15-0.46,6.28-1.08,9.44-1.38
		c3.49-0.33,7.01-0.47,10.52-0.51c4.85-0.07,9.68,0.24,14.21,2.17c1.83,0.78,3.65,1.68,5.24,2.85c1.09,0.81,1.59,2.4,2.67,3.23
		c0.98,0.76,0.78,1.65,0.63,2.36c-0.18,0.84-0.93,1.41-2.03,1.35c-1.28-0.07-2.58-0.01-3.85,0.14c-2.19,0.24-4.37,0.84-6.55,0.83
		c-2.39-0.02-4.49,0.89-6.68,1.46c-5.01,1.31-9.98,2.81-14.67,5.06c-2.22,1.06-4.54,1.82-6.72,3.04c-1.69,0.95-3.52,1.73-5.25,2.69
		c-0.38,0.21-0.92,0.12-1.28,0.34c-1.47,0.92-2.89,1.94-4.36,2.85c-0.47,0.29-1.14,0.27-1.6,0.58c-1.32,0.89-2.53,1.96-3.87,2.81
		c-2.4,1.53-4.87,2.94-7.29,4.45c-0.83,0.52-1.61,1.12-2.34,1.77c-0.81,0.72-1.51,1.57-2.31,2.29c-0.79,0.7-1.67,1.29-2.48,1.98
		c-1.19,1.02-2.34,2.1-3.53,3.13c-0.31,0.27-0.72,0.43-1,0.73c-0.9,0.96-1.7,2.04-2.65,2.94c-1.84,1.74-3.81,3.34-5.4,5.33
		c-0.38,0.48-1.11,0.68-1.44,1.18c-0.65,0.95-1.05,1.94-2.19,2.62c-1.04,0.62-1.67,1.96-2.45,3.02c-1.35,1.84-2.66,3.7-3.99,5.55
		c-1.69,2.35-3.46,4.64-5.05,7.05c-1.16,1.76-1.96,3.75-3.12,5.51c-3.77,5.76-6.55,12.01-9.21,18.33c-1.03,2.46-2.14,4.89-3.07,7.38
		c-1.79,4.81-3.49,9.65-5.21,14.49c-1,2.81-2.04,5.61-2.91,8.47c-0.36,1.17-1.15,2.36-2.75,1.81c-1.49-0.52-2.97-1.15-4.51-1.41
		c-3.83-0.65-7.7-0.73-11.59-0.33c-4.36,0.45-8.57,1.49-12.76,2.69c-2.46,0.7-4.96,1.28-7.38,2.11c-2.55,0.88-5.02,2-7.53,3.01
		c-1.71,0.69-3.45,1.32-5.13,2.08c-1.67,0.75-3.26,1.66-4.92,2.44c-1.11,0.52-2.56,0.66-3.34,1.47c-1.1,1.13-2.45,1.41-3.71,2.06
		c-1.77,0.91-3.38,2.13-5,3.31c-1.26,0.92-2.38,2.02-3.63,2.96c-0.86,0.65-1.98,1-2.71,1.76c-1.63,1.68-3.12,3.5-4.59,5.33
		c-1.62,2-2.66,4.34-3.32,6.8c-1.14,4.25,0.34,8.02,2.58,11.5c0.86,1.33,2.42,2.19,3.42,3.45c2.02,2.57,4.83,4.23,7.53,5.69
		c3.98,2.16,8.4,3.59,12.98,4.11c2.22,0.25,4.43,0.49,6.76,0.03c2.45-0.49,4.91-0.9,7.29-1.66c1.82-0.58,3.7-1.06,5.42-1.88
		c1.28-0.61,2.48-1.36,3.85-1.87c1.52-0.57,2.85-1.65,4.3-2.43c1.14-0.61,2.36-1.07,3.52-1.65c1.9-0.94,3.79-1.92,5.68-2.89
		c0.26-0.13,0.49-0.35,0.77-0.45c1.55-0.55,3.14-1,4.66-1.62c1.33-0.54,3.61,0.45,3.68,1.73c0.03,0.59-0.01,1.19-0.07,1.78
		c-0.63,5.55-1.29,11.1-1.91,16.65c-0.18,1.6-0.28,3.2-0.34,4.81c-0.1,2.52-0.2,5.05-0.18,7.58c0.02,2.15,0.34,4.29,0.31,6.44
		c-0.04,3.52,0.75,6.92,1.37,10.33c0.27,1.47,0.71,2.93,1.24,4.33c0.6,1.58,1.37,3.09,2.08,4.63c0.57,1.24,1.18,2.45,2.82,2.49
		c0.13,0,0.27,0.01,0.38,0.07c2.84,1.6,5.86,2.69,9.03,3.41c1.4,0.32,2.77,0.75,4.16,1.11c2.49,0.65,4.97,1.33,7.48,1.92
		c1.14,0.27,2.34,0.27,3.47,0.55c3.41,0.84,6.77,1.9,10.21,2.6c4.73,0.97,9.5,1.72,14.26,2.53c0.93,0.16,1.89,0.08,2.81,0.26
		c2.07,0.4,2.75,2.08,1.42,3.7c-0.94,1.14-2.11,2.1-3.24,3.08c-1.37,1.19-2.77,2.34-4.21,3.44c-0.84,0.64-1.9,1.02-2.69,1.72
		c-2.31,2.04-4.53,4.18-6.77,6.29c-0.91,0.86-1.9,1.68-2.63,2.68c-1.32,1.8-2.4,3.77-3.71,5.58c-1.93,2.67-2.6,5.77-3.15,8.89
		c-0.32,1.81-0.34,3.71-0.28,5.56c0.1,3.13,0.26,6.27,0.62,9.38C533.1,465.43,533.74,467.51,534.36,469.83 M758.47,369.99
		c0.24-0.76,0.54-1.42,0.67-2.1c0.24-1.2,0.39-2.41,0.56-3.62c0.72-5.12,1.15-10.27,0.38-15.4c-0.35-2.31-1.02-4.61-1.82-6.81
		c-0.51-1.41-1.55-2.62-2.3-3.96c-0.21-0.37-0.15-0.89-0.34-1.29c-0.62-1.27-1.79-2.06-2.83-2.93c-1.38-1.14-2.86-2.16-4.32-3.21
		c-0.62-0.45-1.24-0.94-1.94-1.26c-0.77-0.36-0.72-0.95-0.6-1.54c0.24-1.12,0.5-2.23,0.87-3.31c1.86-5.48,3.23-11.09,4.18-16.79
		c0.46-2.78,0.72-5.6,1.09-8.4c0.21-1.6,0.43-3.21,0.73-4.8c0.22-1.2,1.58-1.98,3.33-2.12c1.72-0.14,3.42-0.37,5.14-0.5
		c0.34-0.03,0.7,0.27,1.06,0.29c1.14,0.08,2.3,0,3.42,0.17c2.65,0.41,5.33,0.76,7.92,1.45c2.09,0.56,4.15,1.4,6.06,2.42
		c2.67,1.43,5.15,3.18,7.3,5.35c1.02,1.03,2.22,1.9,3.15,3c1.29,1.53,2.6,3.1,3.56,4.84c1.31,2.38,2.28,4.94,3.4,7.42
		c0.6,1.33,1.37,2.61,1.78,3.99c0.62,2.06,1.46,4.06,1.44,6.3c-0.01,1.26,0.67,2.52,0.8,3.8c0.34,3.44,0.56,6.89,0.8,10.34
		c0.3,4.34-0.22,8.64-1.01,12.89c-0.85,4.55-1.96,9.05-3.68,13.36c-2.83,7.09-6.01,14-10.47,20.26c-1.55,2.18-2.91,4.5-4.29,6.79
		c-1.97,3.27-3.85,6.58-5.84,9.84c-2.01,3.29-4.03,6.57-6.16,9.79c-1.84,2.78-3.79,5.49-5.74,8.19c-1.62,2.25-3.3,4.46-5,6.65
		c-1.16,1.49-2.38,2.93-3.63,4.35c-0.38,0.44-0.98,0.68-1.41,1.09c-0.65,0.62-1.34,1.24-1.84,1.99c-0.82,1.23-1.8,2.13-3.19,2.71
		c-0.7,0.29-1.16,1.12-1.83,1.55c-1.12,0.73-2.32,1.34-3.48,1.99c-2.21,1.24-4.59,1.93-7.08,2.29c-2.33,0.33-4.65,0.53-6.96-0.2
		c-1.79-0.56-3.66-0.93-5.39-1.64c-1.6-0.66-3.08-1.64-4.57-2.54c-1.08-0.65-2.13-1.36-3.09-2.17c-0.62-0.52-1.22-1.18-1.54-1.91
		c-1.33-3.03-0.97-5.88,1.22-8.43c0.65-0.76,1.24-1.58,1.95-2.28c0.86-0.85,1.79-1.63,2.75-2.37c1.68-1.3,3.39-2.56,5.12-3.79
		c2.69-1.92,5.46-3.72,8.1-5.71c2.06-1.55,3.86-3.38,5.63-5.29c1.92-2.07,3.05-4.54,4.48-6.85c2-3.25,3.91-6.56,5.59-9.98
		c1.5-3.05,2.77-6.23,3.9-9.44c1.36-3.86,2.46-7.81,3.68-11.72C758.25,370.52,758.36,370.31,758.47,369.99 M795.06,368.58
		c0.15-0.33,0.33-0.66,0.46-1c1.88-4.83,3.24-9.8,3.98-14.93c0.38-2.6,0.59-5.23,0.81-7.85c0.41-4.98-0.15-9.93-0.89-14.84
		c-0.66-4.44-1.82-8.79-3.68-12.87c-1.39-3.05-3.05-6-4.86-8.82c-1.73-2.7-4.19-4.79-6.63-6.88c-4.44-3.79-9.61-5.9-15.25-7.01
		c-4.44-0.87-8.9-0.44-13.36-0.26c-0.82,0.03-1.18,0.55-1.27,1.27c-0.1,0.85-0.07,1.71-0.21,2.55c-0.91,5.41-1.71,10.84-2.84,16.2
		c-0.91,4.33-2.15,8.6-3.44,12.84c-0.36,1.2-0.08,1.7,0.84,2.24c3.9,2.3,7.25,5.12,9.51,9.2c1.79,3.22,2.88,6.63,3.5,10.18
		c0.76,4.37,0.68,8.81-0.01,13.15c-0.69,4.3-1.74,8.55-2.82,12.77c-1.58,6.18-3.94,12.09-6.81,17.78c-2.36,4.67-4.9,9.27-7.53,13.79
		c-1.66,2.85-3.87,5.25-6.52,7.32c-6.43,5.01-13.61,9.08-19.2,15.15c-1.35,1.47-2.67,4.12-1.85,6.42c0.79,2.21,2.39,3.31,4.05,4.46
		c3.17,2.22,6.8,3.21,10.59,3.92c5.52,1.04,10.25-0.72,14.65-3.67c4.34-2.92,8.16-6.45,11.34-10.63c2.97-3.9,6.16-7.65,8.98-11.65
		c2.52-3.58,4.7-7.39,6.98-11.14c3.78-6.2,7.35-12.54,11.33-18.61c2.73-4.16,5.3-8.38,7.44-12.86
		C793.31,372.83,794.14,370.79,795.06,368.58 M553.19,138.97c1.53-0.62,2.97-1.13,4.38-1.71c1.27-0.52,2.48-1.21,3.77-1.68
		c1.72-0.61,3.49-1.1,5.24-1.61c2.38-0.69,4.75-1.41,7.16-1.99c1.74-0.42,3.53-0.6,5.29-0.94c0.73-0.14,1.42-0.45,2.14-0.64
		c2-0.52,3.99-1.25,6.03-1.45c2.52-0.25,4.93-1.14,7.52-1.07c1.06,0.03,2.13-0.49,3.2-0.69c1.05-0.18,2.11-0.27,3.17-0.39
		c2.4-0.26,4.81-0.55,7.22-0.73c1.86-0.14,3.74-0.13,5.61-0.17c2.7-0.06,5.4-0.15,8.1-0.13c2.2,0.01,4.41,0.02,6.59,0.28
		c3.79,0.45,7.59,0.91,11.31,1.72c3.13,0.68,6.19,1.76,9.2,2.86c1.94,0.71,3.82,1.66,5.61,2.71c2.48,1.45,4.79,3.16,6.77,5.28
		c0.68,0.73,1.51,1.32,2.15,2.07c0.8,0.94,1.48,1.99,2.19,3c0.08,0.12,0,0.42,0.09,0.46c2.22,1.23,2.38,3.77,3.65,5.54
		c1.1,1.53,1.62,3.19,2.27,4.81c0.91,2.25,1.67,4.62,2.02,7.01c0.57,3.94,1.05,7.93,1.01,11.9c-0.03,3.04-0.81,6.1-1.5,9.1
		c-0.46,2.02-1.96,3.26-4.35,2.37c-3.06-1.14-6.25-1.95-9.42-2.77c-3.8-0.97-7.63-1.83-11.47-2.66c-2.2-0.48-4.44-0.78-6.65-1.21
		c-1.08-0.21-2.26-0.34-3.14-0.91c-0.7-0.45-1.03-1.5-1.49-2.3c-0.41-0.7-0.81-1.41-1.15-2.14c-0.33-0.7-0.49-1.49-0.88-2.15
		c-0.29-0.48-0.8-0.84-1.26-1.21c-1.08-0.87-2.1-1.88-3.31-2.53c-1.72-0.93-3.55-1.71-5.41-2.33c-2.19-0.72-4.43-1.45-6.71-1.73
		c-2.52-0.31-5.11-0.14-7.67-0.14c-9.81-0.03-19.4,1.74-29.02,3.38c-5.07,0.87-10.05,1.97-14.92,3.57c-4.8,1.58-9.55,3.32-14.32,5
		c-1.69,0.6-3.53,0.98-5.01,1.91c-0.92,0.57-1.76,1.21-2.81,1.61c-1.1,0.42-2.06,1.2-3.16,1.62c-3.38,1.3-6.71,2.91-10.46,2.81
		c-0.96-0.03-1.93-0.82-2.85-0.73c-1.86,0.19-2.08-1.93-3.54-2.2c-0.29-0.05-0.6-0.33-0.77-0.59c-1.92-2.96-2.41-6.1-1.02-9.4
		c0.71-1.69,1.45-3.39,2.34-4.99c0.61-1.09,1.52-2.02,2.27-3.04c0.88-1.18,1.57-2.55,2.63-3.51c1.43-1.29,2.19-3.13,4.02-4.16
		c1.3-0.73,2.06-2.36,3.18-3.47c0.71-0.7,1.63-1.18,2.46-1.75c0.12-0.08,0.32-0.08,0.43-0.17c0.76-0.64,1.47-1.35,2.27-1.95
		c1.93-1.47,3.9-2.9,5.86-4.35c1.37-1.01,2.72-2.03,4.11-3.02C552.43,139.22,552.78,139.16,553.19,138.97 M671.2,183.46
		c0.57-2.12,1.43-4.21,1.64-6.36c0.31-3.16,0.36-6.39,0.13-9.55c-0.22-3.03-0.76-6.07-1.49-9.03c-0.52-2.13-1.49-4.17-2.44-6.16
		c-1.2-2.52-2.41-5.09-3.96-7.4c-1.23-1.83-3.02-3.28-4.53-4.92c-2.7-2.94-5.99-5.1-9.51-6.85c-4.33-2.15-8.96-3.53-13.73-4.31
		c-3.5-0.58-7.04-0.97-10.59-1.2c-3.64-0.23-7.32-0.35-10.96-0.19c-5.09,0.22-10.19,0.65-15.26,1.17c-3.32,0.34-6.63,0.88-9.9,1.53
		c-4.54,0.89-9.06,1.91-13.56,2.98c-3.67,0.87-7.32,1.83-10.95,2.87c-2.11,0.6-4.14,1.51-6.24,2.15c-3.25,0.98-6.37,2.31-9.07,4.3
		c-4.96,3.66-9.74,7.57-14.58,11.39c-0.7,0.55-1.4,1.13-1.97,1.8c-1.92,2.24-3.86,4.48-5.67,6.82c-2.55,3.32-4.76,6.83-4.95,11.19
		c-0.13,3,1.64,5.31,3.83,6.57c2.07,1.19,4.36,1.06,6.57,0.45c1.96-0.55,3.9-1.21,5.78-1.98c2.06-0.85,4.07-1.84,6.07-2.83
		c1.61-0.79,3.12-1.82,4.79-2.47c2.99-1.18,6.08-2.1,9.1-3.22c6.23-2.3,12.64-3.97,19.14-5.26c4.19-0.83,8.45-1.36,12.67-2.02
		c5.52-0.87,11.05-1.55,16.65-1.71c5.46-0.15,10.87-0.12,16.13,1.53c4.06,1.27,7.93,2.9,10.58,6.49c0.82,1.11,1.67,2.19,2.44,3.33
		c0.42,0.62,0.66,1.36,1.09,1.98c0.45,0.66,0.94,1.64,1.57,1.77c4.78,1.02,9.61,1.82,14.39,2.81c2.57,0.53,5.09,1.26,7.62,1.96
		C665.03,181.87,668.01,182.76,671.2,183.46 M832.11,177.46c0.23,3.31,0.19,6.5-0.29,9.71c-0.5,3.41-1.55,6.65-2.93,9.76
		c-1.27,2.85-2.71,5.66-4.38,8.3c-1.37,2.17-3.16,4.08-4.8,6.07c-1.26,1.52-2.59,2.99-3.89,4.48c-0.14,0.16-0.32,0.29-0.49,0.41
		c-2.59,1.92-5.07,4.03-7.81,5.68c-1.71,1.03-3.26,2.28-5.08,3.21c-2.76,1.41-5.56,2.64-8.48,3.58c-2.77,0.89-5.66,1.45-8.51,2.08
		c-2.02,0.44-4.1,0.67-6.12,1.14c-5.38,1.24-10.77,2.44-16.09,3.89c-2.94,0.8-5.76,2.07-8.62,3.15c-0.21,0.08-0.36,0.32-0.55,0.45
		c-1.19,0.78-2.36,1.57-3.58,2.3c-0.24,0.14-0.68,0.13-0.95,0c-2.05-0.99-2.62-1.38-2.92-2.69c-0.4-1.73-1.55-3.05-2.22-4.63
		c-0.64-1.5-1.41-2.97-2.25-4.37c-0.67-1.11-1.53-2.11-2.3-3.16c-0.15-0.2-0.38-0.44-0.37-0.65c0.09-1.41-1.16-1.9-1.85-2.76
		c-0.59-0.74-1.26-1.42-1.89-2.13c-1.28-1.44-2.56-2.88-3.85-4.31c-0.16-0.17-0.43-0.24-0.61-0.39c-0.29-0.24-0.56-0.5-0.81-0.77
		c-0.71-0.76-1.37-1.59-2.14-2.29c-1.45-1.32-2.96-2.58-4.46-3.84c-0.3-0.26-0.69-0.48-1.07-0.56c-1.34-0.3-2.03-1.57-1.3-2.79
		c0.65-1.08,1.39-2.16,2.3-3.01c2.41-2.23,4.61-4.62,6.45-7.36c0.79-1.19,1.83-2.21,2.65-3.38c0.79-1.13,1.43-2.36,2.15-3.53
		c1.88-3.04,3.8-6.05,5.63-9.11c0.67-1.11,1.07-2.39,1.72-3.51c1.08-1.86,2.24-3.67,3.4-5.49c1.15-1.82,2.29-3.65,3.51-5.42
		c0.7-1.01,1.57-1.89,2.34-2.86c1-1.26,1.9-2.6,2.97-3.8c1-1.12,2.18-2.07,3.27-3.11c0.98-0.94,1.9-1.96,2.96-2.81
		c0.93-0.74,2.02-1.28,3.01-1.95c0.71-0.47,1.33-1.07,2.06-1.49c1.19-0.69,2.46-1.2,3.64-1.95c1.11-0.71,2.62-0.78,3.94-1.19
		c0.97-0.3,1.9-0.77,2.89-1c1.73-0.4,3.49-0.71,5.26-0.96c1.5-0.22,3.02-0.35,4.53-0.46c1.32-0.1,2.66-0.27,3.97-0.14
		c3.23,0.33,6.5,0.55,9.64,1.3c3.29,0.79,6.51,1.99,9.64,3.3c2.58,1.08,5.03,2.49,7.43,3.92c1.36,0.81,2.57,1.91,3.74,2.99
		c1.48,1.36,2.96,2.74,4.24,4.28c2.79,3.34,4.59,7.26,6.07,11.32c0.47,1.28,0.57,2.7,0.82,4.06
		C831.87,175.75,831.99,176.56,832.11,177.46 M794.58,226.78c0.39-0.13,0.78-0.24,1.16-0.4c3.63-1.51,7.26-3.07,10.43-5.42
		c3.23-2.39,6.68-4.5,9.38-7.56c1.26-1.43,2.7-2.72,3.87-4.22c1.75-2.25,3.46-4.54,4.96-6.96c2.57-4.12,4.4-8.6,5.42-13.35
		c0.77-3.63,0.87-7.3,0.61-11.04c-0.39-5.76-2.49-10.84-5.58-15.54c-1.19-1.8-2.99-3.19-4.46-4.82c-2.1-2.31-4.6-4.09-7.31-5.57
		c-5.87-3.2-12.08-5.35-18.79-6.07c-4.12-0.44-8.2-0.43-12.29,0.09c-6.34,0.81-12.22,2.98-17.59,6.36
		c-2.52,1.59-4.83,3.63-6.91,5.77c-2.07,2.13-3.71,4.67-5.59,6.99c-3.53,4.35-6.1,9.3-8.98,14.07c-1.72,2.85-3.15,5.88-4.95,8.67
		c-2.38,3.69-4.88,7.32-7.53,10.81c-1.84,2.43-3.98,4.65-6.11,6.84c-1.51,1.55-1.61,1.56-0.14,2.87c2.28,2.04,4.62,4.02,6.81,6.14
		c2.41,2.34,4.85,4.68,6.98,7.26c3.08,3.72,5.82,7.7,7.98,12.05c0.93,1.88,1.72,3.84,2.66,5.73c0.16,0.32,0.85,0.65,1.16,0.55
		c0.71-0.22,1.32-0.72,1.99-1.08c2.18-1.16,4.27-2.56,6.56-3.4c3.46-1.27,7.03-2.32,10.63-3.14c5.59-1.27,11.25-2.19,16.85-3.39
		C788.7,228.41,791.53,227.52,794.58,226.78 M653.17,331.82c-1.29,3.2-2.53,6.33-3.88,9.42c-0.6,1.37-1.23,2.8-2.19,3.92
		c-0.93,1.09-2.44,1.37-3.9,1.48c-4.93,0.38-9.76-0.49-14.59-1.26c-3.11-0.5-6.17-1.29-9.29-1.7c-2.56-0.34-5.17-0.22-7.74-0.51
		c-0.73-0.08-1.58-0.71-2.03-1.34c-0.99-1.38-1.32-3.13-2.6-4.43c-0.83-0.84-1.13-2.17-1.82-3.18c-0.6-0.89-1.49-1.58-2.09-2.47
		c-0.92-1.38-1.71-2.85-2.55-4.29c-0.28-0.48-0.5-0.98-0.79-1.45c-0.58-0.94-1.21-1.86-1.79-2.8c-0.59-0.95-1.16-1.9-1.7-2.88
		c-0.55-1-1.01-2.04-1.57-3.03c-0.56-0.98-1.22-1.9-1.81-2.86c-0.92-1.49-1.75-3.05-2.76-4.49c-1.06-1.51-2.16-3.04-3.5-4.27
		c-0.68-0.62-0.45-1.22-0.7-1.79c-0.94-2.18-0.26-4.24,0.24-6.31c0.5-2.05,1.07-4.08,1.66-6.1c0.83-2.81,1.67-5.61,2.58-8.39
		c1.25-3.85,1.33-7.66,0.01-11.51c-0.14-0.39,0.26-1.13,0.61-1.51c1.66-1.76,3.88-1.51,6.03-1.59c2.21-0.09,4.41-0.4,6.62-0.57
		c0.95-0.07,1.92,0,2.87-0.07c0.83-0.06,1.63-0.29,2.46-0.36c1.76-0.15,3.52-0.28,5.29-0.34c2-0.07,4.01-0.05,6.01-0.05
		c0.63,0,1.26,0.02,1.88,0.1c1.56,0.21,3.15,0.33,4.66,0.72c1.72,0.45,3.48,0.95,5.01,1.82c1.54,0.88,2.9,2.15,4.19,3.41
		c0.91,0.89,1.53,2.07,2.34,3.07c0.74,0.94,1.69,1.74,2.3,2.75c1.05,1.75,1.91,3.61,2.86,5.42c0.22,0.42,0.41,0.95,0.78,1.16
		c1.2,0.71,1.34,1.89,1.61,3.05c0.07,0.32,0.15,0.65,0.33,0.92c0.39,0.6,0.95,1.11,1.25,1.75c0.87,1.86,1.61,3.78,2.46,5.65
		c0.57,1.26,1.24,2.49,1.87,3.72c0.83,1.6,1.65,3.19,2.51,4.77c0.26,0.47,0.71,0.84,0.98,1.31c0.61,1.05,1.14,2.14,1.73,3.2
		c0.46,0.82,0.92,1.63,1.45,2.4c1.04,1.5,1.18,2.94,0.36,4.67c-1.1,2.34-1.91,4.82-2.83,7.25
		C655.06,326.7,654.13,329.22,653.17,331.82 M617.38,268.71c-0.87,0.04-1.74,0.07-2.61,0.13c-4.24,0.29-8.47,0.58-12.71,0.87
		c-2.76,0.19-5.51,0.37-8.27,0.57c-1.03,0.07-1.85,0.9-1.6,1.61c1.49,4.29,0.72,8.51-0.49,12.69c-0.86,2.97-1.86,5.9-2.7,8.88
		c-0.6,2.12-1.03,4.3-1.6,6.43c-0.54,2-0.13,3.91,0.84,5.56c0.98,1.67,2.47,3.03,3.63,4.6c1.49,2.02,2.86,4.13,4.28,6.2
		c0.1,0.14,0.2,0.28,0.28,0.43c1.6,3.03,3.08,6.13,4.83,9.07c1.51,2.53,3.34,4.86,5.01,7.3c0.88,1.28,1.74,2.57,2.54,3.89
		c0.68,1.11,1.45,2.22,1.84,3.43c0.43,1.34,1.21,1.41,2.37,1.4c1.86-0.02,3.74,0.03,5.59,0.26c3.79,0.48,7.6,0.91,11.33,1.72
		c3.98,0.86,7.98,1.23,12.01,1.34c2.37,0.06,4.25-0.82,5.19-3.22c1.35-3.44,2.79-6.84,4.18-10.27c1.96-4.83,3.9-9.68,5.89-14.51
		c0.5-1.22,0.76-2.47,0.14-3.62c-1.3-2.38-2.79-4.66-4.15-7.01c-1.09-1.89-2.14-3.8-3.11-5.75c-1.09-2.18-2.04-4.43-3.12-6.62
		c-1.04-2.1-2.14-4.16-3.27-6.21c-1.71-3.1-3.33-6.25-5.25-9.21c-1.17-1.81-2.79-3.33-4.25-4.94c-2.1-2.32-4.59-3.98-7.81-4.26
		C623.46,269.24,620.51,268.99,617.38,268.71 M570.08,471.68c-2.58,1.88-5.34,3.45-7.65,5.52c-2.07,1.85-4.45,2.91-6.88,3.97
		c-2.88,1.25-5.92,1.85-9.01,0.99c-1.14-0.32-2.54-0.9-3.1-1.81c-0.76-1.23-1.94-1.73-2.8-2.64c-1.02-1.06-1.55-2.64-2.13-4.06
		c-0.82-2-1.57-4.03-2.2-6.1c-0.34-1.12-0.35-2.33-0.53-3.5c-0.24-1.61-0.67-3.21-0.72-4.83c-0.1-3.14,0.09-6.28,0-9.42
		c-0.1-3.11,1.23-5.81,2.5-8.44c0.98-2.03,2.61-3.77,4.04-5.56c1.01-1.26,2.12-2.44,3.29-3.56c1.04-0.99,2.23-1.82,3.32-2.75
		c0.37-0.31,0.67-0.7,0.99-1.06c0.1-0.12,0.13-0.39,0.24-0.41c2.24-0.51,3.12-2.7,4.8-3.9c1.56-1.12,3.18-2.18,4.61-3.44
		c1.95-1.72,3.69-3.67,5.64-5.39c0.77-0.68,1.49-1.34,2.95-1.12c2.62,0.4,5.35,0.15,8.03,0.16c1.54,0,3.09,0.01,4.63-0.05
		c2.52-0.1,5.04-0.26,7.56-0.36c1.54-0.06,3.09,0,4.62-0.08c2.88-0.16,5.76-0.39,8.63-0.58c1.24-0.08,2.48-0.23,3.71-0.17
		c1.22,0.06,2.2,1.43,2.09,2.67c-0.07,0.81-0.16,1.62-0.17,2.43c-0.01,2.28-1.11,4.23-1.92,6.24c-1.15,2.88-2.27,5.82-3.84,8.48
		c-2.44,4.16-5.23,8.12-7.91,12.14c-1.31,1.96-2.63,3.92-4.06,5.79c-1.47,1.92-3.11,3.71-4.64,5.59c-1.09,1.34-2.04,2.82-3.22,4.07
		c-1.06,1.12-1.9,2.56-3.09,3.41c-1.46,1.04-2.14,2.74-3.52,3.62c-1.59,1.01-2.42,2.69-3.95,3.69
		C570.27,471.29,570.19,471.46,570.08,471.68 M564.25,474.1c1.72-1.38,3.55-2.65,5.14-4.17c2.77-2.65,5.42-5.43,8.04-8.23
		c2.15-2.28,4.34-4.56,6.28-7.03c3.25-4.13,6.46-8.32,9.42-12.66c3.04-4.46,6.12-8.92,8.19-13.97c1.53-3.75,3.46-7.33,3.78-11.48
		c0.13-1.64,0.08-1.8-1.57-1.69c-2.76,0.18-5.51,0.43-8.27,0.52c-5.36,0.19-10.72,0.32-16.08,0.43c-3.22,0.07-6.44,0.2-9.64,0.02
		c-1.93-0.11-3.74-0.53-4.69,1.74c-0.03,0.07-0.14,0.1-0.21,0.16c-2.69,2.32-5.36,4.65-8.06,6.94c-3.38,2.86-6.85,5.61-10.15,8.55
		c-1.82,1.62-3.48,3.46-5.03,5.35c-3.57,4.33-4.95,9.43-4.77,14.96c0.1,2.88,0.33,5.76,0.59,8.63c0.5,5.57,2.09,10.72,5.41,15.36
		c2.58,3.6,7.09,3.95,10.39,2.84C557.03,479.04,560.77,477.04,564.25,474.1 M690.56,314.32c2.67,0.89,5.43,1.83,7.02,4.01
		c1.9,2.61,4.37,4.44,6.83,6.31c2.55,1.94,5.33,3.57,7.98,5.39c1.84,1.27,3.73,2.52,5.41,3.99c1.71,1.49,1.66,3.5,0.31,5.6
		c-1.75,2.73-3.37,5.55-5.16,8.27c-1.35,2.04-2.85,3.97-4.31,5.93c-0.55,0.73-1.05,1.62-1.79,2.07c-1.94,1.16-2.55,3.59-4.78,4.57
		c-1.15,0.5-1.76,2.13-2.77,3.08c-1,0.94-2.19,1.67-3.32,2.47c-1.27,0.9-2.57,1.76-3.83,2.67c-1.48,1.07-2.91,2.2-4.4,3.25
		c-0.87,0.61-1.76,1.24-2.73,1.63c-2.63,1.06-4.54,3.4-7.46,3.98c-0.83,0.17-1.52,1.06-2.27,1.61c-0.07,0.05-0.13,0.13-0.21,0.15
		c-2.42,0.7-4.48,2.18-6.81,3.07c-2.49,0.96-4.95,2.07-7.51,2.79c-1.03,0.29-2.35-0.12-3.43-0.51c-0.48-0.17-0.88-1.01-1.04-1.62
		c-0.8-2.98-1.61-5.96-2.23-8.98c-0.65-3.19-1.02-6.44-1.62-9.64c-0.8-4.27-1.7-8.53-2.54-12.79c-0.27-1.35-0.58-2.7-0.67-4.07
		c-0.04-0.65,0.19-1.5,0.61-1.96c1.78-1.9,2.35-4.4,3.36-6.65c1.47-3.26,2.66-6.65,3.94-9.99c0.99-2.58,1.94-5.18,2.9-7.77
		c0.32-0.88,1.91-1.86,2.81-1.99c1.42-0.21,2.9-0.23,4.17-1.1c0.28-0.19,0.86,0.11,1.24,0c2.37-0.73,4.73-1.49,7.09-2.28
		c1.74-0.59,3.43-1.65,5.19-1.76c2.39-0.14,4.78-1.13,7.23-0.19C688.6,314.2,689.56,314.17,690.56,314.32 M674.26,318.11
		c-3.54,1.23-7.12,2.34-10.88,2.63c-0.9,0.07-1.45,0.32-1.8,1.3c-1.21,3.28-2.63,6.47-3.85,9.74c-1.92,5.15-3.61,10.38-6.54,15.1
		c-0.36,0.58-0.25,1.58-0.1,2.34c0.52,2.54,1.27,5.04,1.73,7.59c0.9,5.01,1.57,10.06,2.52,15.06c0.68,3.62,1.64,7.2,2.51,10.79
		c0.25,1.04,1.26,1.63,2.08,1.3c2.97-1.19,5.99-2.27,8.87-3.65c3.99-1.9,7.94-3.91,11.77-6.09c3.89-2.22,7.66-4.65,11.4-7.11
		c1.76-1.16,3.34-2.61,4.96-3.97c1.7-1.43,3.51-2.76,4.99-4.39c2.72-3.01,5.4-6.1,7.78-9.38c2.57-3.54,4.81-7.33,7.14-11.04
		c0.97-1.54,0.88-2.45-0.2-3.28c-1.43-1.08-2.87-2.15-4.35-3.15c-3.12-2.13-6.33-4.14-9.39-6.35c-1.76-1.27-3.34-2.81-4.96-4.28
		c-1.2-1.09-2.22-2.42-3.53-3.35c-2.48-1.78-5.38-2.77-8.41-2.7C681.97,315.3,678.11,316.44,674.26,318.11 M695.92,282.24
		c-0.96,3.68-1.94,7.25-2.62,10.88c-0.45,2.39-0.49,4.86-0.64,7.3c-0.19,2.98-0.04,5.94,0.6,8.88c0.27,1.23-1.08,2.38-2.46,2.22
		c-1.42-0.17-2.82-0.47-4.23-0.7c-0.14-0.02-0.29-0.04-0.43-0.02c-2.58,0.38-5.2,0.59-7.73,1.2c-2.13,0.51-4.12,1.56-6.23,2.21
		c-2.21,0.68-4.46,1.23-6.73,1.68c-0.81,0.16-1.75-0.03-2.55-0.28c-0.38-0.12-0.76-0.74-0.86-1.19c-0.54-2.5-1.79-4.59-3.25-6.66
		c-0.94-1.33-1.36-3.03-2.13-4.5c-0.43-0.82-1.21-1.46-1.62-2.29c-0.9-1.78-1.64-3.63-2.49-5.44c-0.38-0.8-1.02-1.49-1.28-2.32
		c-0.5-1.56-1.57-2.79-2.21-4.26c-0.94-2.17-1.87-4.34-2.86-6.48c-0.21-0.44-0.74-0.72-1.04-1.13c-0.41-0.57-0.74-1.2-1.1-1.81
		c-0.37-0.63-0.74-1.26-1.08-1.91c-0.48-0.92-0.8-1.97-1.44-2.76c-1.07-1.3-2.36-2.41-3.53-3.64c-0.53-0.56-0.92-1.24-1.45-1.79
		c-0.3-0.31-0.73-0.54-1.15-0.68c-1.36-0.46-2.12-1.49-1.78-2.89c1.02-4.15,2.21-8.26,3.2-12.41c0.63-2.65,1.04-5.35,1.53-8.04
		c0.24-1.3,1.23-2.41,2.14-2.27c0.84,0.13,1.66,0.33,2.48,0.55c4.16,1.11,8.3,2.29,12.47,3.35c4.57,1.16,9.22,1.72,13.93,1.69
		c0.59,0,1.16-0.5,1.76-0.62c0.32-0.06,0.77,0.11,1.06,0.33c1.07,0.8,2.17,1.59,2.58,2.99c0.05,0.18,0.25,0.35,0.42,0.46
		c1.41,0.91,2.18,2.31,3,3.7c0.63,1.08,1.68,1.95,2.18,3.07c1.15,2.57,3.68,4.11,4.65,6.9c0.59,1.7,2.38,2.95,3.48,4.51
		c0.87,1.23,1.71,2.44,2.87,3.43c1.3,1.11,2.41,2.44,3.68,3.57c1.67,1.48,1.81,1.85,1.1,4.03
		C696.09,281.45,696.08,281.81,695.92,282.24 M686.71,309.22c1.39,0.21,2.78,0.4,4.17,0.63c0.71,0.12,1.01-0.21,0.9-0.85
		c-0.27-1.69-0.82-3.36-0.85-5.05c-0.07-4.64,0.3-9.25,1.44-13.78c0.85-3.38,1.67-6.77,2.44-10.17c0.1-0.43-0.02-1.11-0.31-1.4
		c-1.78-1.73-3.71-3.31-5.47-5.06c-1.27-1.26-2.5-2.61-3.5-4.08c-1.62-2.39-2.91-5-4.56-7.37c-2.61-3.75-5.43-7.35-8.11-11.05
		c-0.54-0.75-1.15-0.83-1.98-0.81c-2.39,0.04-4.8,0.15-7.16-0.08c-5.12-0.5-10.14-1.61-15.09-2.99c-2.38-0.66-4.75-1.35-7.05-2.21
		c-1.09-0.41-1.4-0.13-1.56,0.85c-0.38,2.27-0.68,4.57-1.23,6.8c-0.85,3.48-1.95,6.9-2.78,10.38c-0.39,1.64-1.73,3.39,0.68,4.94
		c1.65,1.06,2.89,2.79,4.24,4.29c1.11,1.22,2.23,2.46,3.13,3.83c1.1,1.68,1.98,3.51,2.96,5.27c1.07,1.91,2.21,3.78,3.21,5.73
		c0.98,1.91,1.8,3.91,2.74,5.84c0.98,2.02,2,4.03,3.05,6.02c1.64,3.11,3.2,6.28,5.04,9.27c1.09,1.77,2.02,3.53,2.59,5.52
		c0.12,0.41,0.82,0.9,1.26,0.9c0.74,0,1.49-0.33,2.23-0.56c3.6-1.15,7.16-2.47,10.82-3.41
		C680.75,309.89,683.67,309.65,686.71,309.22 M617.39,264.19c-2.26,0.16-4.43,0.35-6.61,0.52c-3.04,0.24-6.07,0.47-9.11,0.69
		c-2.63,0.19-5.26,0.37-7.89,0.53c-1.86,0.12-3.72,0.37-5.57,0.26c-1.87-0.11-3.42-1.07-4.54-2.66c-0.21-0.3-0.77-0.33-1.04-0.6
		c-0.53-0.52-0.9-1.21-1.46-1.69c-1.14-0.99-2.72-1.67-3.47-2.88c-1.12-1.82-2.97-2.7-4.38-4.1c-1.95-1.94-4.21-3.58-6.34-5.34
		c-0.09-0.08-0.18-0.2-0.29-0.22c-1.75-0.33-2.51-2.27-4.33-2.6c-0.92-0.17-0.8-2.74,0.1-3.82c1.65-1.99,3.25-4.03,4.98-5.94
		c0.9-1,2.33-1.6,3.03-2.69c1.22-1.9,2.89-3.3,4.43-4.86c0.96-0.98,1.73-2.05,3.09-2.7c1.2-0.59,1.96-2.03,3.05-2.92
		c2.29-1.86,4.68-3.6,7.02-5.41c0.32-0.25,0.49-0.7,0.83-0.91c2.25-1.35,4.52-2.65,6.79-3.96c0.33-0.19,0.7-0.3,1-0.52
		c1.45-1.05,3.01-1.84,4.64-2.6c1.42-0.66,2.79-1.66,4.27-2.3c2.26-0.98,4.6-1.76,6.91-2.62c0.99-0.37,2.03-0.67,2.97-1.14
		c1.62-0.81,4.03,0.11,4.66,1.79c0.61,1.61,1.31,3.24,2.04,4.72c1,2.02,1.96,4.09,3,6.11c0.93,1.8,1.84,3.6,2.7,5.43
		c0.86,1.83,1.63,3.69,2.49,5.52c0.85,1.8,1.76,3.58,2.63,5.37c1.45,3,2.55,6.12,2.67,9.49c0.12,3.24-0.15,6.42-1.18,9.56
		c-1.01,3.09-1.61,6.31-2.42,9.47c-0.23,0.89-0.42,1.81-0.8,2.65c-0.57,1.27-2.08,2.04-3.64,1.49c-2.99-1.07-6.07-0.67-9.11-0.89
		C618.17,264.39,617.83,264.27,617.39,264.19 M567.99,238.52c-1.09,1.24-2.22,2.44-3.24,3.74c-0.52,0.66-0.9,1.46-1.19,2.25
		c-0.08,0.22,0.32,0.75,0.61,0.95c0.94,0.64,2.03,1.08,2.88,1.81c3.74,3.18,7.41,6.43,11.11,9.65c2.39,2.08,4.96,3.99,7.15,6.26
		c1.34,1.39,2.77,1.65,4.43,1.52c4.42-0.35,8.84-0.84,13.26-1.14c5.2-0.36,10.4-0.75,15.6-0.79c3.13-0.02,6.26,0.6,9.39,0.92
		c0.75,0.08,1.61,0.22,1.9-0.75c0.37-1.22,0.62-2.47,0.95-3.7c0.75-2.86,1.52-5.72,2.26-8.58c0.83-3.2,1.18-6.43,0.77-9.74
		c-0.48-3.95-2.33-7.4-3.88-10.95c-0.94-2.17-2.04-4.26-3.07-6.39c-0.81-1.68-1.61-3.36-2.42-5.04c-1.11-2.32-2.21-4.64-3.32-6.95
		c-0.92-1.91-1.79-3.84-2.81-5.69c-0.2-0.37-1.04-0.72-1.45-0.6c-2.96,0.89-5.96,1.73-8.8,2.92c-2.91,1.22-5.69,2.76-8.48,4.26
		c-2.67,1.44-5.41,2.82-7.88,4.56c-3.81,2.68-7.43,5.64-11.12,8.5c-0.88,0.68-1.73,1.4-2.51,2.19c-2.29,2.31-4.56,4.64-6.8,7
		C570.26,235.89,569.25,237.15,567.99,238.52 M465.67,303.32c0.63-0.17,1.17-0.36,1.71-0.53c0.54-0.17,1.09-0.32,1.64-0.48
		c0.16-0.05,0.36-0.02,0.47-0.11c1.57-1.31,3.65-1.19,5.41-1.98c1.61-0.73,3.33-1.25,5.03-1.77c1-0.31,2.07-0.42,3.1-0.64
		c0.63-0.13,1.26-0.31,1.89-0.47c1.58-0.39,3.13-0.88,4.73-1.15c1.26-0.21,2.57-0.07,3.84-0.23c3.52-0.43,7-0.05,10.4,0.7
		c1.34,0.3,2.49,1.26,3.62,2.34c1.89,1.8,0.6,3.37,0.31,4.89c-0.69,3.61-1.89,7.12-2.63,10.73c-1.34,6.53-2.48,13.09-3.73,19.64
		c-0.29,1.53-1.08,2.01-2.65,2.36c-2.83,0.63-5.59,1.5-8.22,2.76c-1.6,0.76-3.25,1.41-4.84,2.19c-1.87,0.92-3.69,1.96-5.56,2.88
		c-1.1,0.54-2.29,0.91-3.4,1.44c-0.74,0.36-1.4,0.88-2.1,1.33c-0.04,0.02-0.07,0.06-0.11,0.08c-2.79,0.95-5.23,2.82-8.31,3.08
		c-1.48,0.12-2.9,0.75-4.37,1.05c-2.72,0.55-5.4,0.15-8.13-0.15c-2.53-0.28-4.76-1.24-7.04-2.05c-2.67-0.95-5.11-2.43-7.43-4.16
		c-1.26-0.94-2.34-2.02-3.42-3.08c-1.26-1.25-2.6-2.39-3.71-3.86c-1.92-2.52-2.02-5.17-1.63-7.94c0.19-1.34,0.86-2.67,1.57-3.85
		c1.04-1.71,2.18-3.4,3.52-4.88c1.11-1.24,2.58-2.14,3.84-3.25c0.7-0.61,1.31-1.33,1.95-1.99c0.06-0.06,0.09-0.18,0.14-0.19
		c2.34-0.22,3.28-2.61,5.34-3.38c1.71-0.64,3.18-1.89,4.8-2.79c1.17-0.65,2.42-1.13,3.62-1.72c1.52-0.76,2.98-1.63,4.53-2.33
		c0.92-0.41,1.98-0.5,2.9-0.9C463.73,304.46,464.64,303.84,465.67,303.32 M476.22,301.51c-2.11,0.75-4.25,1.45-6.33,2.27
		c-3.47,1.36-6.95,2.72-10.36,4.22c-2.1,0.92-4.1,2.07-6.11,3.18c-3.24,1.8-6.58,3.48-9.64,5.55c-3.32,2.26-6.32,5.01-8.83,8.16
		c-1.51,1.89-2.73,4.1-2.94,6.58c-0.22,2.52,0.44,4.89,2.12,6.85c0.92,1.09,1.85,2.22,2.97,3.09c2.24,1.75,4.49,3.57,6.97,4.93
		c2.22,1.21,4.73,1.97,7.18,2.69c3.29,0.96,6.67,1.32,10.11,0.86c5.72-0.77,10.83-3.15,15.86-5.82c3.2-1.7,6.44-3.3,9.69-4.88
		c3.79-1.85,7.72-3.36,11.89-4.13c0.78-0.15,0.94-0.54,1.05-1.19c0.67-4.18,1.36-8.36,2.06-12.53c0.19-1.14,0.42-2.29,0.7-3.41
		c1.37-5.47,2.75-10.93,4.15-16.39c0.24-0.91-0.15-1.49-0.8-1.98c-1.65-1.25-3.56-1.61-5.58-1.8c-3.42-0.32-6.85-0.32-10.2,0.37
		C485.56,299.06,481.01,300.26,476.22,301.51 M548.24,332.16c0.87-2.69,1.57-5.33,2.43-7.92c1-2.98,1.98-5.96,2.27-9.11
		c0.14-1.44,0.23-2.89,0.27-4.33c0.04-1.4,0.94-2.17,2.12-2.81c1.16-0.63,2.43-0.47,3.59-1.03c1.03-0.5,2.32-0.46,3.5-0.68
		c0.24-0.04,0.47-0.14,0.7-0.22c2.17-0.7,4.29-1.74,6.51-2.01c3.05-0.37,6.23-0.86,9.23,0.38c2.08,0.86,4.11,1.82,5.66,3.58
		c0.91,1.03,2.03,1.87,3.03,2.82c0.28,0.27,0.51,0.61,0.71,0.95c1.43,2.5,2.59,5.2,4.34,7.44c1.22,1.56,1.52,3.54,2.65,4.89
		c1.52,1.82,2.06,4.05,3.3,5.91c1.63,2.43,3.65,4.6,5.38,6.98c0.85,1.18,1.46,2.54,2.09,3.86c0.53,1.11,1.01,2.25,1.36,3.42
		c0.26,0.85,0.21,1.78,0.39,2.66c0.6,3.01-0.41,5.81-1.21,8.59c-1.32,4.56-2.91,9.04-4.36,13.56c-0.56,1.76-1.04,3.54-1.56,5.32
		c-0.22,0.76-2.14,1.64-3.02,1.41c-1.67-0.45-3.34-0.95-5.03-1.31c-4.45-0.95-8.9-1.92-13.38-2.73c-2.19-0.39-4.43-0.44-6.65-0.65
		c-1.6-0.15-2.91-0.89-4.11-1.91c-1.58-1.33-2.68-3.17-4.61-4.15c-0.57-0.29-0.87-1.11-1.33-1.65c-1.89-2.28-3.82-4.53-5.69-6.83
		c-0.86-1.05-1.67-2.15-2.42-3.29c-0.56-0.85-0.97-1.79-1.48-2.68c-0.32-0.56-0.69-1.09-1.07-1.61c-0.72-0.98-1.47-1.95-2.2-2.93
		c-0.66-0.89-1.33-1.78-1.94-2.7c-0.38-0.57-0.96-1.22-0.91-1.8c0.21-2.59,0.6-5.16,0.95-7.73
		C547.82,333.3,548.01,332.77,548.24,332.16 M600.19,369.79c0.12-0.36,0.23-0.71,0.35-1.07c1.65-5.16,3.39-10.3,4.91-15.5
		c0.53-1.81,0.58-3.76,0.74-5.66c0.28-3.43-1.56-6.15-3.28-8.83c-1.98-3.07-4.19-5.99-6.27-8.99c-0.48-0.69-0.85-1.45-1.25-2.2
		c-1.39-2.58-2.72-5.19-4.17-7.74c-0.83-1.46-1.98-2.74-2.73-4.23c-1.48-2.91-3.68-5.18-6.09-7.24c-3.4-2.91-7.4-3.56-11.69-2.5
		c-2.72,0.68-5.4,1.49-8.12,2.16c-1.97,0.48-3.98,0.8-5.96,1.26c-0.89,0.21-1.57,0.45-1.62,1.78c-0.09,2.63-0.4,5.3-0.97,7.87
		c-0.64,2.89-1.69,5.69-2.54,8.54c-0.92,3.1-1.94,6.17-2.67,9.32c-0.57,2.45-0.94,4.92,1.14,7.13c1.61,1.72,2.89,3.76,4.27,5.69
		c2.11,2.95,4.16,5.94,6.27,8.89c2.43,3.39,5.13,6.55,8.42,9.15c1.09,0.86,2.18,1.82,3.72,1.84c1.23,0.02,2.47-0.01,3.68,0.19
		c3.85,0.64,7.7,1.3,11.52,2.1c3.16,0.66,6.28,1.52,9.42,2.28c0.91,0.22,1.74,0.06,2.04-0.92
		C599.62,372.08,599.76,371,600.19,369.79 M684.22,258.44c-0.93-0.38-1.34-0.9-1.58-1.83c-0.2-0.8-0.92-1.47-1.41-2.2
		c-0.99-1.48-1.94-2.99-2.98-4.43c-0.32-0.44-0.86-0.77-1.37-1.01c-1.59-0.72-1.96-2.95-1.03-4.41c1-1.57,1.79-3.32,2.4-5.08
		c1.14-3.32,2.11-6.7,3.09-10.08c0.96-3.27,1.83-6.57,2.75-9.85c0.53-1.9,1.01-3.82,1.62-5.7c0.71-2.19,2.52-2.33,3.88-1.7
		c3.06,1.43,6.12,2.82,9.07,4.5c3.41,1.95,6.61,4.15,9.73,6.5c1.9,1.43,3.76,2.93,5.5,4.55c1.4,1.31,2.63,2.81,3.86,4.3
		c0.99,1.19,1.72,2.63,2.81,3.7c2.3,2.24,3.15,5.33,4.92,7.82c0.88,1.24,1.22,2.51,1.77,3.79c0.63,1.46,1.48,2.83,2.05,4.31
		c1.14,2.96,2.19,5.93,2.88,9.07c0.86,3.89,1.47,7.77,1.74,11.74c0.18,2.64-1.17,3.43-3.46,3.2c-3.21-0.31-6.4-0.25-9.6,0.24
		c-1.66,0.26-3.37,0.23-5.04,0.42c-0.76,0.09-1.48,0.48-2.24,0.57c-3.85,0.49-7.71,1.47-11.57,0.32c-1.58-0.47-3.02-1.42-4.54-2.12
		c-2.24-1.02-3.39-3.29-5.35-4.65c-0.73-0.51-1.12-1.48-1.71-2.22c-1.09-1.36-2.23-2.66-3.29-4.04c-0.42-0.55-0.61-1.27-0.97-1.88
		c-0.47-0.79-1.04-1.52-1.48-2.32C684.47,259.53,684.42,259.01,684.22,258.44 M707.66,224.53c-1.32-0.95-2.63-1.92-3.97-2.85
		c-4.6-3.18-9.49-5.82-14.6-8.09c-1.02-0.45-1.55,0.16-1.75,0.85c-1.69,5.87-3.26,11.76-4.94,17.63c-1.31,4.57-2.61,9.16-5.01,13.32
		c-0.65,1.12-0.16,1.94,0.52,2.74c0.32,0.38,0.78,0.65,1.07,1.04c3.78,5.01,7.41,10.1,10.58,15.54c1.59,2.74,3.88,4.96,6.19,7.14
		c3.06,2.88,6.67,4.42,10.82,4.11c4.15-0.31,8.26-1.05,12.39-1.58c4.01-0.51,8.04-0.91,12.08-0.34c1.1,0.15,1.52-0.38,1.42-1.28
		c-0.64-6.5-1.61-12.95-4.12-19.04c-1.35-3.28-2.81-6.51-4.34-9.7c-0.62-1.31-1.51-2.5-2.37-3.68c-2.28-3.14-4.43-6.4-6.97-9.32
		C712.64,228.7,710.12,226.82,707.66,224.53 M629.42,218.4c-0.57-1.26-1.15-2.42-1.72-3.59c-0.05-0.1,0.06-0.33,0-0.37
		c-1.6-1.1-1.99-2.99-2.58-4.57c-0.73-1.96-2.37-3.56-2.26-5.88c0.07-1.5,0.51-2.23,1.96-2.4c2.84-0.33,5.69-0.75,8.54-0.93
		c1.85-0.12,3.72,0.1,5.58,0.22c3.24,0.21,6.49,0.32,9.7,0.73c3.75,0.47,7.46,1.22,11.19,1.82c6.17,1,12.25,2.39,18.17,4.41
		c1.38,0.47,2.79,0.88,4.17,1.33c0.44,0.15,1.15,0.28,1.24,0.57c0.23,0.77,0.42,1.69,0.21,2.43c-0.9,3.3-1.98,6.55-2.93,9.84
		c-1.01,3.51-1.83,7.09-2.94,10.57c-1.3,4.06-2.44,8.23-4.97,11.77c-0.5,0.69-1.44,1.38-2.25,1.48c-3.06,0.38-6.11,0.31-9.16-0.48
		c-2.71-0.71-5.55-0.93-8.3-1.51c-1.84-0.39-3.64-0.99-5.45-1.55c-1.79-0.55-3.58-1.1-5.34-1.75c-1.26-0.47-2.6-0.92-3.64-1.72
		c-0.74-0.58-1.17-1.68-1.51-2.63c-0.37-1.02-0.3-2.21-0.72-3.2c-0.6-1.41-1.51-2.69-2.21-4.06c-0.49-0.96-0.83-1.99-1.25-2.99
		c-0.62-1.45-0.95-3.21-1.98-4.25C629.98,220.72,630.15,219.44,629.42,218.4 M643.82,202.74c-2.17-0.14-4.34-0.44-6.5-0.37
		c-3.75,0.12-7.48,0.47-11.23,0.74c-1.26,0.09-1.78,0.85-1.3,2.03c0.46,1.11,1.08,2.15,1.59,3.24c1.04,2.21,2.04,4.43,3.08,6.63
		c1.11,2.36,2.23,4.71,3.36,7.07c1.1,2.28,2.27,4.53,3.29,6.84c0.98,2.21,2,4.43,2.64,6.74c0.43,1.57,1.15,2.48,2.67,2.91
		c4.52,1.29,9,2.78,13.57,3.85c3.94,0.92,7.97,1.55,11.99,1.98c2.8,0.3,4.16,0.19,5.74-3.05c2.75-5.61,4.09-11.7,5.83-17.65
		c1.11-3.8,2.06-7.64,3.27-11.4c0.42-1.31-0.08-1.67-1.07-1.96c-2.57-0.77-5.12-1.63-7.72-2.26c-4.94-1.2-9.89-2.42-14.89-3.33
		C653.48,203.89,648.73,203.41,643.82,202.74 M561.92,303.67c-1.3,0.31-2.5,0.54-3.7,0.77c-1.24,0.23-2.48,0.48-3.72,0.66
		c-1.66,0.25-2.84-0.49-3.99-1.69c-1.16-1.2-2.64-2.09-4.01-3.07c-1.68-1.21-3.36-2.44-5.11-3.55c-1.61-1.02-3.3-1.92-4.96-2.85
		c-1.05-0.59-1.74-2.19-1.26-3.43c1.76-4.52,3.49-9.06,5.43-13.5c1.34-3.09,2.93-6.09,4.54-9.05c1.69-3.1,3.47-6.16,5.33-9.15
		c1.01-1.62,2.32-3.05,3.43-4.62c1.27-1.79,2.46-3.63,3.7-5.44c0.41-0.6,2.35-0.95,2.94-0.52c1.95,1.42,3.86,2.87,5.81,4.28
		c1.32,0.95,3.01,1.61,3.92,2.85c1.1,1.51,2.72,2.29,3.9,3.64c1.15,1.32,2.65,2.33,3.99,3.49c1.12,0.98,2.27,1.92,3.33,2.97
		c1.85,1.83,3.69,3.67,5.44,5.59c1.78,1.94,1.87,4.43,1.7,6.83c-0.21,3.02-1.09,5.9-2.16,8.75c-1.09,2.89-1.84,5.92-2.69,8.9
		c-0.5,1.74-0.82,3.54-1.39,5.26c-0.38,1.14-1.46,1.49-2.63,1.13c-3.46-1.06-6.89-1.27-10.41-0.16
		C566.96,302.5,564.47,302.99,561.92,303.67 M555.47,303.37c3.97-1.02,7.91-2.18,11.91-3.03c3.19-0.68,6.42-1.46,9.73-0.71
		c1.13,0.25,2.27,0.5,3.42,0.67c0.21,0.03,0.64-0.29,0.71-0.52c0.38-1.35,0.64-2.73,1.02-4.08c0.88-3.15,1.87-6.28,2.71-9.44
		c0.75-2.84,1.56-5.68,1.99-8.58c0.31-2.08,0.09-4.34-1.5-5.98c-2.26-2.33-4.64-4.53-7.02-6.73c-1.63-1.5-3.38-2.88-5.05-4.34
		c-2.52-2.19-4.98-4.46-7.54-6.6c-1.62-1.36-3.38-2.56-5.09-3.81c-0.7-0.51-1.52-1-2.2-0.05c-1.8,2.51-3.62,5.01-5.28,7.61
		c-3.61,5.65-7.12,11.36-9.79,17.54c-2.21,5.12-4.28,10.3-6.49,15.41c-0.47,1.08-0.04,1.58,0.74,2.05c2.12,1.28,4.34,2.41,6.36,3.82
		c2.28,1.58,4.46,3.33,6.56,5.14C552.01,302.95,553.26,304.17,555.47,303.37 M605.77,381.65c-0.28-1.48-0.58-2.87-0.87-4.26
		c-0.01-0.04,0.02-0.1,0-0.12c-2.6-2.82-0.8-5.61,0.09-8.39c1.65-5.16,3.39-10.29,4.96-15.47c0.41-1.34,0.41-2.82,0.47-4.24
		c0.07-1.71,1.53-3.31,3.29-3.14c2.97,0.28,5.93,0.74,8.9,1.11c0.89,0.11,1.8,0.09,2.69,0.23c1.28,0.2,2.54,0.52,3.81,0.74
		c1.29,0.23,2.59,0.43,3.89,0.58c2.65,0.3,5.3,0.58,7.96,0.8c0.76,0.06,1.55-0.2,2.33-0.18c2.67,0.08,3.76,1.21,4.25,3.99
		c0.46,2.6,1.18,5.15,1.63,7.75c0.62,3.58,0.99,7.19,1.65,10.76c0.51,2.75,1.31,5.45,1.95,8.17c0.44,1.86,0.77,3.74,1.26,5.58
		c0.31,1.17-0.2,1.89-1.13,2.27c-1,0.41-2.11,0.58-3.17,0.87c-1.02,0.28-2.01,0.66-3.05,0.85c-4.53,0.8-9.06,1.63-13.61,2.29
		c-4.29,0.62-8.6,1.11-12.92,1.54c-2.87,0.29-5.77,0.42-8.66,0.5c-1.21,0.03-2.41-0.32-3.33-1.23c-0.15-0.14-0.2-0.43-0.22-0.65
		c-0.16-1.43-0.22-2.87-0.46-4.28c-0.19-1.12-0.57-2.2-0.89-3.29C606.33,383.53,606.04,382.64,605.77,381.65 M609.1,361.89
		c-0.87,2.5-1.92,4.97-2.57,7.53c-0.61,2.39-2.6,4.87-0.05,7.33c0.04,0.04-0.02,0.17,0,0.25c1.01,4.68,2.04,9.36,3.04,14.05
		c0.2,0.94,0.57,1.28,1.64,1.18c3.82-0.35,7.65-0.48,11.48-0.81c3.96-0.34,7.92-0.7,11.86-1.26c3.3-0.46,6.56-1.18,9.82-1.86
		c2.3-0.48,4.58-1.09,6.87-1.65c1.09-0.27,1.43-0.82,1.11-2.01c-0.97-3.69-1.93-7.39-2.67-11.12c-1.38-6.94-2.62-13.91-3.86-20.87
		c-0.23-1.3-0.76-1.66-2.12-1.66c-3.18,0.01-6.38-0.06-9.53-0.48c-5.46-0.71-10.88-1.73-16.33-2.56c-1.34-0.2-2.72-0.28-4.07-0.2
		c-0.53,0.03-1.36,0.61-1.46,1.07c-0.44,2-0.53,4.09-1.01,6.08C610.68,357.2,609.85,359.44,609.1,361.89 M553.1,355.12
		c0.41,0.69,0.7,1.3,1.06,1.87c0.57,0.89,1.17,1.76,1.8,2.61c0.39,0.53,0.86,1.01,1.25,1.53c1.21,1.61,2.31,3.29,3.61,4.82
		c0.99,1.16,2.15,2.21,3.35,3.15c2.1,1.65,2.11,3.62,0.66,5.52c-1.89,2.47-3.86,4.88-5.85,7.28c-1.55,1.87-3.25,3.62-4.74,5.54
		c-1.32,1.7-2.45,3.54-3.65,5.33c-0.84,1.25-1.9,1.82-3.46,1.53c-2.46-0.44-4.99-0.59-7.42-1.17c-2.79-0.67-5.51-1.65-8.24-2.55
		c-0.73-0.24-1.38-0.69-2.08-1.02c-3.03-1.42-4.16-4.28-5.35-7.08c-0.44-1.03-0.79-2.1-1.22-3.12c-1.23-2.92-1.97-5.97-2.21-9.11
		c-0.3-4-0.56-8.01-0.58-12.02c-0.01-2.27,0.36-4.57,0.79-6.82c0.18-0.94,0.82-1.87,2.02-2.05c0.28-0.04,0.6-0.14,0.79-0.33
		c1.02-0.98,2.44-1.4,3.46-2.16c1.38-1.03,2.93-1.19,4.33-1.91c1.51-0.79,3.34-0.54,4.84-1.05c1.34-0.46,2.6-0.06,3.91-0.41
		c1.07-0.29,2.42,0.22,3.59,0.54c1.22,0.34,2.2,1,2.63,2.37c0.17,0.54,0.91,0.86,1.26,1.37c0.61,0.87,1.07,1.85,1.71,2.7
		C550.54,352.03,551.8,353.51,553.1,355.12 M564.38,372.36c-0.23-0.53-0.31-1.27-0.71-1.55c-2.77-1.95-4.74-4.67-6.85-7.21
		c-2.18-2.63-3.96-5.6-5.97-8.39c-1.78-2.47-3.78-4.8-5.37-7.38c-1.32-2.13-3.12-2.75-5.37-2.64c-6.32,0.3-12.14,2.08-17.17,6.05
		c-0.3,0.23-0.55,0.68-0.59,1.05c-0.22,1.96-0.4,3.93-0.52,5.89c-0.27,4.44,0.04,8.85,0.63,13.26c0.49,3.67,1.52,7.19,3.02,10.52
		c0.95,2.12,2.41,4.02,3.71,5.97c0.25,0.38,0.75,0.66,1.19,0.83c5.27,2,10.75,3.1,16.33,3.79c1.3,0.16,2.17,0.12,2.95-1.34
		c1.95-3.65,4.73-6.74,7.43-9.88C559.55,378.46,561.82,375.45,564.38,372.36 M709.6,280.23c0.8-0.18,1.49-0.45,2.21-0.55
		c1.96-0.27,3.93-0.45,5.9-0.69c2.31-0.29,4.61-0.82,6.92-0.88c2.63-0.06,5.3,0.11,7.89,0.53c1.47,0.24,1.9,1.32,1.72,3.57
		c-0.35,4.51-0.71,9.05-1.48,13.51c-0.8,4.66-2.01,9.25-3.16,13.85c-0.82,3.26-1.69,6.52-2.78,9.69c-1.3,3.77-2.84,7.46-4.31,11.18
		c-0.55,1.39-2.42,1.68-3.54,0.71c-0.98-0.85-2.08-1.57-3.16-2.3c-2.03-1.38-4.07-2.73-6.12-4.07c-1.22-0.8-2.52-1.49-3.71-2.33
		c-0.88-0.62-1.72-1.33-2.48-2.09c-1.57-1.59-3.18-3.16-4.58-4.89c-2.29-2.82-3.14-6.25-3.54-9.76c-0.22-1.98-0.26-4.02-0.04-6
		c0.41-3.7,0.95-7.39,1.65-11.05c0.48-2.51,1.26-4.98,2.07-7.42c0.18-0.53,1.08-1.14,1.65-1.14c1.54-0.02,3.08,0.34,4.62,0.42
		c0.98,0.05,1.97-0.13,2.95-0.2C708.69,280.28,709.1,280.25,709.6,280.23 M703.25,318.29c1.43,1.09,2.82,2.23,4.29,3.27
		c1.76,1.24,3.61,2.36,5.36,3.6c2.4,1.69,4.74,3.46,7.14,5.15c0.16,0.11,0.75-0.05,0.82-0.21c0.95-2.23,1.96-4.45,2.71-6.75
		c1.67-5.13,3.33-10.26,4.75-15.47c1.15-4.2,2.02-8.49,2.86-12.77c0.48-2.47,0.71-5,0.95-7.51c0.2-2.07,0.23-4.16,0.4-6.24
		c0.07-0.86-0.29-1.12-1.06-1.27c-2.73-0.51-5.44-0.47-8.18-0.09c-5.02,0.69-10.03,1.44-15.07,1.93c-2,0.19-4.07-0.19-6.1-0.39
		c-0.98-0.1-1.6,0.24-1.83,1.17c-0.86,3.51-1.82,7.01-2.49,10.56c-0.79,4.18-1.27,8.4-0.64,12.69c0.45,3.07,1.24,5.97,3,8.53
		C701.02,315.77,702.11,316.89,703.25,318.29 M535.24,296.85c1.03,0.36,1.99,0.73,2.86,1.24c1.51,0.88,3.02,1.77,4.43,2.79
		c2.08,1.52,4.35,2.91,6.01,4.82c1.62,1.86,2.51,4.28,2.16,6.99c-0.64,5.04-2.08,9.85-3.83,14.6c-0.77,2.09-1.27,4.29-1.78,6.46
		c-0.43,1.86-0.59,3.78-1.11,5.61c-0.17,0.59-1.05,1.28-1.68,1.36c-1.92,0.25-3.9,0.08-5.82,0.36c-2.12,0.32-4.21,0.88-6.27,1.49
		c-1.6,0.47-3.12,1.23-4.7,1.79c-1.17,0.41-2.47,0.92-3.38-0.4c-0.33-0.49-0.43-1.3-0.32-1.9c0.52-2.69,1.15-5.36,1.73-8.03
		c0.46-2.14,0.84-4.3,1.35-6.43c1.24-5.16,2.49-10.32,3.82-15.45c1.18-4.57,2.47-9.11,3.73-13.66
		C532.84,297.1,534.01,296.44,535.24,296.85 M542.84,336.15c0.9-3.29,1.7-6.62,2.74-9.87c1.46-4.58,3.05-9.14,3.42-13.97
		c0.09-1.23-0.05-2.63-0.56-3.73c-1.02-2.18-2.9-3.74-4.85-5.1c-2.57-1.79-5.22-3.44-7.88-5.09c-0.74-0.46-1.4-0.18-1.65,0.7
		c-0.97,3.49-1.96,6.98-2.88,10.48c-0.98,3.74-1.9,7.49-2.82,11.24c-1.02,4.17-2.01,8.36-3.01,12.54c-0.39,1.66-0.79,3.33-1.12,5.01
		c-0.27,1.42-0.47,2.86-0.64,4.3c-0.03,0.29,0.18,0.62,0.33,0.91c0.03,0.06,0.3,0.07,0.41,0.01c0.86-0.5,1.65-1.13,2.55-1.53
		c3.92-1.73,8.04-2.7,12.33-2.87C542.4,339.08,542.4,339.11,542.84,336.15 M578.51,374.28c1.05,0.22,2,0.44,2.96,0.63
		c2.71,0.54,5.43,1.01,8.13,1.62c1.84,0.42,3.63,1.06,5.46,1.54c1.56,0.41,3.13,0.88,4.72,1.06c2.03,0.23,3.14,1.66,3.49,3.42
		c0.41,2.1,1.11,4.15,1.61,6.24c0.22,0.91,0.26,1.86,0.35,2.8c0.15,1.47-1.48,2.52-3.06,2.61c-2.62,0.15-5.24,0.12-7.86,0.17
		c-2.2,0.04-4.4,0.08-6.6,0.1c-2.64,0.01-5.27-0.03-7.9,0.01c-2.91,0.04-5.82,0.17-8.73,0.18c-4.77,0.02-9.54-0.07-14.32-0.03
		c-1.16,0.01-1.92-0.23-2.35-1.38c-0.44-1.16,0.13-2.05,0.73-2.85c1.14-1.5,2.39-2.92,3.63-4.35c1.65-1.9,3.39-3.72,4.97-5.68
		c1.42-1.77,2.78-3.63,3.96-5.57c0.81-1.33,2.01-1.08,3.06-1.05C573.3,373.79,575.86,374.07,578.51,374.28 M562.62,384.15
		c-0.47,0.57-0.95,1.14-1.42,1.7c-1.62,1.96-3.27,3.9-4.84,5.9c-0.66,0.84-0.3,1.57,0.72,1.55c5.41-0.1,10.82-0.21,16.22-0.34
		c3.66-0.08,7.31-0.24,10.97-0.29c5.92-0.09,11.85-0.11,17.78-0.19c1.37-0.02,1.69-0.38,1.41-1.71c-0.55-2.58-1.26-5.13-1.77-7.71
		c-0.2-1.02-0.42-1.88-1.53-2.15c-5.41-1.32-10.8-2.78-16.25-3.89c-3.96-0.8-8.02-1.18-12.04-1.63c-1.12-0.13-2.29-0.28-3.21,0.97
		C566.75,378.96,564.66,381.44,562.62,384.15 M544.86,229.32c1.32-1.68,2.57-3.3,3.95-4.82c0.97-1.07,2.15-1.95,3.15-3
		c0.61-0.64,1.04-1.45,1.57-2.18c0.19-0.27,0.4-0.55,0.65-0.74c1.29-0.96,2.45-2.04,3.37-3.38c0.22-0.32,0.7-0.45,1.02-0.72
		c1.74-1.46,3.44-2.96,5.21-4.39c0.26-0.21,0.87-0.25,1.17-0.09c1.29,0.7,2.19,1.8,3.04,2.99c1.92,2.69,3.79,5.44,5.93,7.95
		c1.44,1.69,1.3,4.3-0.73,5.85c-0.58,0.45-1.14,0.85-1.66,1.45c-1.23,1.41-2.56,2.76-3.85,4.11c-0.88,0.92-1.49,2.07-2.43,2.86
		c-2.1,1.77-3.39,4.21-5.37,6.08c-0.92,0.87-1.4,2.19-2.23,3.18c-0.71,0.85-1.77,1.4-2.86,0.87c-0.71-0.35-1.96-0.14-2.03-1.46
		c-0.01-0.1-0.34-0.18-0.52-0.29c-0.72-0.45-1.5-0.84-2.16-1.37c-1.12-0.9-2.07-2.09-3.29-2.79c-1.33-0.77-1.88-2.38-3.55-2.8
		c-1.03-0.26-1.6-3.22-0.87-4.32C543.07,231.27,544.02,230.37,544.86,229.32 M560.08,238.47c1.73-1.94,3.43-3.91,5.21-5.81
		c2.19-2.34,4.41-4.66,6.7-6.91c1.15-1.13,1.64-2.38,0.9-3.4c-2.51-3.45-5.05-6.87-7.62-10.26c-0.18-0.23-0.9-0.36-1.12-0.2
		c-1.62,1.22-3.28,2.42-4.73,3.82c-2.18,2.11-4.22,4.36-6.28,6.58c-1.77,1.91-3.5,3.86-5.2,5.82c-1.18,1.36-2.29,2.79-3.45,4.17
		c-0.83,0.99-0.91,1.92-0.07,2.93c0.64,0.77,1.34,1.51,2.11,2.15c2.24,1.86,4.5,3.69,6.81,5.46c0.7,0.53,1.56,0.93,2.41,1.13
		c0.21,0.05,0.65-0.9,1-1.38c0.07-0.1,0.23-0.14,0.31-0.24C558,241.1,558.93,239.86,560.08,238.47 M624.56,195.43
		c0.41,1.85-0.01,3.34-1.19,3.72c-1.39,0.44-2.84,0.66-4.25,1.04c-2.27,0.61-4.54,1.25-6.79,1.93c-2.06,0.62-4.12,1.26-6.15,1.99
		c-1.24,0.45-2.39,1.12-3.62,1.59c-0.44,0.17-0.99,0.03-1.48,0.09c-0.31,0.04-0.61,0.22-0.92,0.28c-0.17,0.04-0.48,0.03-0.54-0.07
		c-0.91-1.55-1.92-3.01-2.37-4.84c-0.37-1.52-1.4-2.87-1.91-4.38c-0.61-1.8-1.43-3.53-1.34-5.58c0.05-1.21,0.68-1.26,1.39-1.55
		c0.34-0.14,0.76-0.17,1.02-0.4c1.33-1.15,2.97-1.6,4.56-2.18c1.63-0.6,3.18-1.44,4.8-2.08c1.28-0.51,2.63-0.86,3.94-1.3
		c1.16-0.39,2.29-0.87,3.46-1.22c0.97-0.29,1.98-0.44,2.97-0.65c0.87-0.19,1.74-0.5,2.62-0.52c1.51-0.04,2.59,0.98,2.85,2.36
		c0.33,1.75,0.66,3.51,1.11,5.24C623.28,191.07,623.95,193.2,624.56,195.43 M597.03,190.47c-1.15,0.67-1.71,1.4-1.04,2.9
		c0.96,2.15,1.52,4.47,2.4,6.65c0.6,1.5,1.43,2.91,2.22,4.33c0.1,0.18,0.61,0.29,0.84,0.2c1.95-0.74,3.89-1.5,5.81-2.32
		c4.55-1.93,9.27-3.28,14.12-4.21c1.65-0.31,1.95-0.94,1.49-2.57c-1.06-3.74-2.18-7.48-2.96-11.29c-0.26-1.27-0.68-1.27-1.54-1.06
		c-1.85,0.45-3.73,0.84-5.53,1.45c-3.4,1.15-6.75,2.42-10.12,3.66C600.9,188.9,599.08,189.61,597.03,190.47 M670.13,384.2
		c0.45-0.06,0.84-0.06,1.16-0.21c1.12-0.54,2.08-1.27,3.32-1.71c2.01-0.71,3.76-2.13,5.68-3.13c1.63-0.85,3.32-1.6,5.03-2.26
		c2.2-0.86,2.62-0.45,3.62,2.13c0.74,1.93,1.71,3.79,2.75,5.58c1.05,1.8,2.28,3.5,3.49,5.19c0.99,1.38,0.62,1.99-0.38,2.75
		c-1.23,0.92-2.69,1.54-4.05,2.29c-0.33,0.18-0.78,0.26-0.98,0.53c-1.18,1.57-2.87,2.14-4.67,2.61c-0.6,0.16-1.08,0.74-1.66,1.05
		c-1.36,0.72-2.71,1.45-4.12,2.06c-1.91,0.82-3.83,1.7-5.84,2.21c-1.09,0.28-2.37-0.15-3.55-0.3c-0.14-0.02-0.31-0.3-0.35-0.49
		c-0.32-1.34-0.58-2.7-0.92-4.03c-0.84-3.3-1.72-6.59-2.57-9.89c-0.27-1.06,0.38-2.18,1.4-2.73
		C668.37,385.38,669.18,384.75,670.13,384.2 M670.62,399.17c0.17,0.67,0.4,1.33,0.48,2.01c0.1,0.82,0.53,0.94,1.18,0.69
		c2.7-1.06,5.42-2.09,8.09-3.21c1.6-0.67,3.2-1.38,4.7-2.24c2.8-1.61,5.53-3.34,8.25-5.07c0.21-0.14,0.34-0.79,0.21-1.03
		c-1.35-2.35-2.87-4.61-4.11-7.01c-0.82-1.59-2.11-3.02-2.17-4.97c0-0.12-0.81-0.44-1.06-0.31c-3.09,1.56-6.13,3.22-9.21,4.8
		c-2.7,1.38-5.38,2.8-8.16,3.97c-1.19,0.5-1.16,1.12-0.93,2.04C668.74,392.2,669.61,395.58,670.62,399.17 M733.34,339.56
		c0.42,0.25,0.75,0.49,1.08,0.73c0.46,0.33,1.27,0.62,1.32,1.01c0.13,0.95,0.18,2.08-0.23,2.89c-1.2,2.34-2.66,4.55-3.97,6.84
		c-0.67,1.16-1.16,2.43-1.88,3.56c-1.21,1.88-2.54,3.68-3.81,5.52c-1.06,1.54-2.14,3.07-3.15,4.64c-0.69,1.07-1.77,1.71-2.84,1.15
		c-0.86-0.45-2.42-0.17-2.41-1.82c-1.52-0.42-1.75-2.42-2.87-2.83c-2.1-0.77-2.74-2.48-3.49-4.12c-0.32-0.7-0.22-1.93,0.21-2.58
		c1.53-2.31,3.39-4.4,4.92-6.71c1.47-2.23,2.7-4.62,4.01-6.97c0.75-1.35,1.38-2.76,2.16-4.1c0.94-1.61,3.12-1.65,5.1-0.41
		C729.34,337.54,731.32,338.5,733.34,339.56 M713.02,357.63c0.94,1.12,1.8,2.31,2.83,3.34c1.16,1.16,2.44,2.22,3.72,3.25
		c0.3,0.24,1.02,0.4,1.22,0.22c0.58-0.49,1.03-1.15,1.46-1.8c1.94-2.9,3.93-5.77,5.75-8.75c2.16-3.53,4.13-7.17,6.23-10.73
		c0.55-0.93,0.04-1.32-0.62-1.68c-2.47-1.33-4.97-2.58-7.41-3.96c-1.38-0.78-1.81-0.73-2.55,0.68c-1.23,2.33-2.37,4.73-3.79,6.95
		c-2.09,3.29-4.37,6.46-6.62,9.64C712.6,355.7,712.49,356.52,713.02,357.63 M573.88,216.13c-1.37-1.85-2.65-3.59-3.94-5.33
		c-0.64-0.86-1.42-1.65-1.86-2.6c-0.39-0.86-0.17-1.81,0.73-2.43c2.18-1.49,4.37-2.97,6.52-4.51c0.75-0.54,1.33-1.34,2.11-1.83
		c1.45-0.92,2.99-1.7,4.49-2.55c1-0.57,2-1.14,3-1.72c1.14-0.67,2.26-1.38,3.43-2.02c0.47-0.26,1.17-0.66,1.51-0.48
		c1.25,0.66,1.95,1.84,2.43,3.17c0.67,1.84,1.41,3.66,2.12,5.49c0.72,1.87,1.47,3.72,2.16,5.6c0.4,1.09-0.51,2.47-1.6,2.88
		c-0.72,0.27-1.3,0.92-1.97,1.36c-1.36,0.88-2.74,1.74-4.11,2.6c-0.61,0.39-1.27,0.72-1.83,1.17c-0.95,0.75-1.73,1.8-2.79,2.3
		c-1.36,0.64-2.2,1.69-3.2,2.68c-0.6,0.59-1.87,1.09-2.56,0.84c-0.67-0.24-1.81-0.18-2.16-1.55
		C576.06,218.07,574.79,217.21,573.88,216.13 M593.13,202.7c-0.95-2.48-1.97-4.94-2.8-7.45c-0.28-0.85-0.53-0.95-1.2-0.57
		c-0.66,0.38-1.32,0.75-1.97,1.13c-3.43,1.99-6.93,3.89-10.28,6.01c-2.33,1.48-4.45,3.27-6.7,4.89c-0.64,0.46-0.71,0.85-0.22,1.47
		c0.95,1.21,1.86,2.45,2.75,3.7c1.65,2.34,3.23,4.72,4.93,7.03c0.26,0.36,1.22,0.68,1.45,0.5c1.98-1.55,3.78-3.36,5.82-4.84
		c3.03-2.2,6.21-4.21,9.33-6.29c0.74-0.49,0.85-0.99,0.42-1.84C594.07,205.34,593.73,204.1,593.13,202.7 M523.75,265.93
		c0.79-1.94,1.53-3.81,2.36-5.64c0.49-1.09,1.91-1.6,2.93-1.02c2.01,1.14,3.96,2.38,5.95,3.57c1.81,1.08,3.65,2.12,5.44,3.24
		c1.12,0.7,1.46,1.76,0.93,2.97c-1.17,2.7-2.46,5.34-3.63,8.04c-1.32,3.05-2.67,6.09-3.8,9.21c-0.92,2.54-2.83,2.48-4.55,1.69
		c-2.27-1.04-4.62-1.91-6.89-2.95c-1.55-0.71-3.15-1.41-4.47-2.45c-0.39-0.3-0.03-1.81,0.27-2.67c0.99-2.93,2.06-5.84,3.18-8.73
		C522.15,269.43,522.98,267.74,523.75,265.93 M533.11,284c0.03-0.22,0.02-0.46,0.11-0.65c1.95-4.27,3.85-8.57,5.88-12.8
		c1.59-3.33,1.13-2.64-1.26-4.26c-2.72-1.84-5.59-3.45-8.38-5.19c-0.98-0.61-1.82-0.37-2.27,0.74c-0.37,0.92-0.73,1.83-1.09,2.75
		c-2.15,5.43-4.32,10.85-6.45,16.29c-0.3,0.76-0.08,1.43,0.76,1.78c3.34,1.37,6.67,2.78,10.03,4.1c0.75,0.29,1.74,0.62,1.88-0.84
		C532.37,285.32,532.69,284.75,533.11,284 M650.82,195.02c-0.21,1.34-0.21,2.67-1.36,3.54c-0.25,0.19-0.61,0.37-0.91,0.35
		c-2.1-0.21-4.19-0.63-6.3-0.7c-3.63-0.11-7.27,0.01-10.91-0.02c-0.94-0.01-1.94-0.11-2.8-0.45c-0.5-0.2-0.95-0.9-1.12-1.47
		c-1.04-3.38-2.21-6.74-2.87-10.19c-0.26-1.38-1.22-2.97-0.17-4.44c0.34-0.48,0.88-1.05,1.4-1.14c1.62-0.26,3.27-0.39,4.91-0.42
		c1.15-0.02,2.3,0.21,3.45,0.3c1.1,0.09,2.2,0.09,3.29,0.21c1.95,0.22,3.88,0.5,5.82,0.78c1.56,0.22,3.11,0.49,4.67,0.69
		c1.25,0.16,1.95,0.73,2.09,2.07c0.29,2.89,0.7,5.77,1,8.65C651.09,193.48,650.9,194.21,650.82,195.02 M636.92,182.11
		c-3.16-0.09-6.31-0.22-9.47-0.27c-1.66-0.03-2.08,0.51-1.66,2.06c1.06,3.95,2.14,7.9,3.28,11.83c0.15,0.54,0.43,0.98,1.37,0.92
		c5.72-0.36,11.45-0.23,17.16,0.44c1.02,0.12,1.53-0.43,1.66-1.58c0.41-3.62-0.15-7.18-0.7-10.73c-0.06-0.39-0.54-0.91-0.94-1.03
		c-1.06-0.33-2.17-0.55-3.27-0.7C641.93,182.7,639.52,182.43,636.92,182.11 M715.42,373.73c-0.58,0.71-0.97,1.43-1.53,1.96
		c-1.69,1.6-3.46,3.11-5.17,4.68c-0.21,0.2-0.17,0.68-0.39,0.87c-1.53,1.35-2.71,3.08-4.72,3.94c-0.9,0.38-1.43,1.57-2.22,2.3
		c-0.79,0.73-1.58,1.79-2.88,0.78c-0.03-0.02-0.09-0.01-0.13-0.02c-1.42-0.41-1.44-0.4-1.89-1.1c-0.5-0.79-0.98-1.59-1.45-2.4
		c-0.66-1.15-1.33-2.31-1.92-3.5c-0.44-0.88-0.74-1.82-1.14-2.72c-0.14-0.33-0.32-0.68-0.57-0.92c-0.6-0.58-1.18-3.48-0.7-4.17
		c0.2-0.29,0.72-0.34,1.05-0.56c2.09-1.42,4.21-2.8,6.23-4.32c0.82-0.61,1.33-1.61,2.08-2.32c0.91-0.85,1.97-1.55,2.9-2.38
		c0.64-0.57,1.19-1.24,1.75-1.89c0.4-0.46,0.72-0.99,1.11-1.46c0.93-1.13,2.8-1.03,3.81,0.06c1.13,1.23,2.56,2.21,3.51,3.55
		c1.19,1.67,3.09,2.48,4.32,4.02c0.64,0.8,0.61,1.92,0.13,2.79C717.04,371.91,716.22,372.75,715.42,373.73 M700.73,385.58
		c1.68-1.36,3.46-2.62,5.03-4.09c1.88-1.76,3.62-3.68,5.36-5.58c1.67-1.82,3.29-3.69,4.87-5.6c0.22-0.27,0.27-1.06,0.07-1.25
		c-1.23-1.14-2.61-2.13-3.84-3.27c-1.11-1.03-2.22-2.09-3.1-3.31c-0.98-1.37-1.23-1.47-2.34-0.41c-2.42,2.3-4.85,4.61-7.4,6.77
		c-2.01,1.69-4.22,3.16-6.33,4.73c-0.69,0.51-1.14,1.05-0.63,2.01c0.48,0.9,0.76,1.91,1.21,2.83c1.01,2.02,2.05,4.01,3.12,6
		c0.48,0.9,1.03,1.77,1.62,2.6c0.15,0.22,0.73,0.43,0.82,0.34C699.68,386.85,700.09,386.27,700.73,385.58 M516.36,339.92
		c2.97,1.34,2.65,1.21,2.15,5.26c-0.29,2.34-0.45,4.71-0.66,7.06c-0.15,1.74-0.37,3.49-0.42,5.23c-0.06,1.87,0.2,3.76,0.04,5.62
		c-0.16,1.85-1.56,3.02-3.79,2.44c-1.88-0.49-3.77-0.95-5.66-1.41c-1.94-0.48-3.9-0.89-5.81-1.46c-1.2-0.36-1.19-1.69-1.15-2.53
		c0.12-2.22,0.64-4.41,0.9-6.63c0.18-1.52,0.16-3.07,0.34-4.59c0.39-3.29,0.82-6.58,1.29-9.86c0.16-1.16,1.24-2.14,2.32-1.98
		c1.86,0.29,3.7,0.7,5.52,1.2C513.07,338.73,514.66,339.36,516.36,339.92 M503.51,353.46c-0.23,2.36-0.47,4.71-0.67,7.07
		c-0.05,0.62,0.16,1.1,0.98,1.1c0.69,0,1.4,0.14,2.08,0.3c2.91,0.67,5.81,1.34,8.7,2.06c1.03,0.25,1.24-0.29,1.24-1.09
		c0.02-1.25-0.05-2.51,0.01-3.76c0.13-2.39,0.27-4.77,0.5-7.15c0.27-2.63,0.64-5.26,0.98-7.88c0.14-1.05,0.22-2.04-1.09-2.45
		c-3.19-0.99-6.37-2.03-9.57-2.96c-0.76-0.22-1.42,0.02-1.54,1.12C504.66,344.31,504.08,348.79,503.51,353.46 M739.15,283.05
		c1.09-0.48,2.06-0.93,3.07-1.26c0.29-0.09,0.85,0.37,1.02,0.24c1.63-1.23,3.47-0.3,5.17-0.61c0.89-0.16,2.26,0.64,2.32,1.48
		c0.06,0.88,0.04,1.76-0.01,2.64c-0.15,2.8-0.23,5.61-0.52,8.4c-0.3,2.82-0.83,5.62-1.22,8.43c-0.14,1.02-0.13,2.06-0.29,3.07
		c-0.24,1.54-0.5,3.08-0.89,4.58c-0.28,1.11-1.99,1.72-3.04,1.29c-2.78-1.13-5.54-2.33-8.37-3.3c-3.42-1.17-3.05-2.7-2.37-5.14
		c0.45-1.61,0.61-3.3,0.93-4.94c0.12-0.62,0.37-1.23,0.45-1.85c0.38-3.18,0.68-6.36,1.07-9.54
		C736.67,284.95,737.7,283.9,739.15,283.05 M737.83,291.24c-0.31,2.04-0.54,4.09-0.93,6.12c-0.49,2.51-1.14,5-1.63,7.51
		c-0.08,0.39,0.26,1.16,0.59,1.29c2.89,1.2,5.81,2.31,8.74,3.42c1.58,0.6,1.75,0.49,1.97-1.15c0.65-4.71,1.33-9.42,1.91-14.15
		c0.25-2.06,0.24-4.16,0.4-6.23c0.12-1.54,0.3-3.08,0.51-4.62c0.09-0.65,0.01-0.79-0.68-0.59c-0.7,0.2-1.47,0.15-2.19,0.28
		c-1.99,0.38-4.02,0.67-5.95,1.26c-0.82,0.25-1.85,1.05-2.07,1.8C738.02,287.73,738.04,289.42,737.83,291.24 M641.65,397.57
		c-0.05-0.95-0.17-1.82-0.15-2.68c0.02-0.8,0.35-1.35,1.29-1.57c1.18-0.27,2.3-0.82,3.46-1.2c0.73-0.24,1.48-0.43,2.24-0.59
		c1.74-0.38,3.52-0.65,5.23-1.13c1.57-0.44,3.08-1.09,4.61-1.65c0.92-0.33,1.83-0.72,2.77-0.98c0.75-0.21,2.3,1.24,2.59,2.29
		c0.7,2.5,1.48,4.98,2.11,7.5c0.48,1.93,0.75,3.91,1.18,5.85c0.31,1.36-0.67,2.09-1.52,2.27c-4.33,0.93-8.7,1.69-13.07,2.42
		c-1.78,0.3-3.6,0.3-5.39,0.55c-2.5,0.36-3.84-0.7-4.12-3.16c-0.19-1.73-0.62-3.44-0.91-5.16
		C641.83,399.45,641.75,398.55,641.65,397.57 M643.47,399.25c0.46,2.39,0.91,4.79,1.39,7.18c0.1,0.5,0.1,1.03,1.02,0.77
		c1.17-0.32,2.44-0.26,3.65-0.46c5.09-0.85,10.18-1.72,15.26-2.64c0.25-0.05,0.61-0.66,0.56-0.93c-0.3-1.55-0.69-3.08-1.08-4.62
		c-0.7-2.71-1.49-5.4-2.08-8.13c-0.15-0.69-0.28-0.78-0.84-0.62c-1.17,0.35-2.33,0.72-3.5,1.04c-4.3,1.19-8.59,2.41-12.91,3.51
		c-1.18,0.3-1.85,0.67-1.64,2.01C643.43,397.25,643.43,398.17,643.47,399.25 M700.26,199.02c2.49,1.28,4.96,2.38,7.3,3.67
		c1.48,0.82,1.63,1.78,0.81,3.18c-1.38,2.34-2.72,4.71-4.23,6.97c-1.31,1.97-2.92,2.13-4.64,0.88c-0.72-0.52-1.53-0.93-2.34-1.3
		c-2.11-0.97-4.25-1.9-6.38-2.85c-2.32-1.03-4.63-2.07-6.96-3.05c-0.39-0.17-0.94,0.05-1.34-0.11c-1.02-0.4-2.14-0.74-2.96-1.42
		c-0.71-0.59-0.99-1.58-0.78-2.66c0.51-2.6,0.92-5.22,1.38-7.84c0.22-1.25,1.19-2.35,2.09-2.22c1.04,0.15,2.1,0.36,3.09,0.71
		c2.5,0.86,4.98,1.77,7.43,2.74C695.23,196.74,697.7,197.85,700.26,199.02 M686.23,195.13c-0.89-0.32-1.77-0.7-2.69-0.95
		c-1.14-0.32-1.7,0.08-1.88,1.25c-0.28,1.82-0.37,3.7-0.86,5.46c-0.78,2.79-0.67,3.11,2,3.92c6.07,1.84,11.82,4.4,17.28,7.62
		c1.32,0.78,2,0.8,2.9-0.75c1.24-2.14,2.46-4.3,3.86-6.34c0.59-0.86,0.37-1.19-0.36-1.53c-4.4-2.05-8.78-4.14-13.23-6.1
		C691.04,196.74,688.7,196.01,686.23,195.13 M518.85,375.63c0.68,2.22,1.38,4.34,2.08,6.47c0.47,1.43-0.27,2.57-1.69,2.94
		c-1.61,0.43-3.2,0.98-4.73,1.62c-1.17,0.49-2.25,1.19-3.36,1.8c-0.92,0.5-1.89,0.94-2.74,1.55c-0.64,0.46-1.06,1.22-1.69,1.7
		c-1.6,1.24-3.79,0.45-4.17-1.53c-0.56-2.96-1.26-5.91-1.51-8.9c-0.34-4.05-0.32-8.12-0.43-12.19c-0.03-0.95-0.28-2.13,0.82-2.58
		c1.37-0.56,2.82-0.94,4.34-0.11c0.68,0.37,1.56,0.37,2.35,0.54c2.71,0.59,5.42,1.2,8.13,1.78c0.98,0.21,1.5,0.82,1.68,1.77
		C518.23,372.18,518.55,373.86,518.85,375.63 M503.27,385.27c0.36,1.79,0.7,3.58,1.1,5.36c0.05,0.22,0.38,0.49,0.61,0.51
		c0.21,0.02,0.56-0.2,0.66-0.41c0.93-1.98,2.83-2.89,4.57-3.79c2.42-1.25,5.09-2.02,7.59-3.13c0.72-0.32,1.76-0.76,1.27-2.03
		c-1.26-3.23-2.23-6.54-2.52-10.02c-0.07-0.77-0.39-1.49-1.4-1.5c-0.35,0-0.7-0.07-1.04-0.15c-3.47-0.83-6.94-1.67-10.41-2.49
		c-0.79-0.19-1.23,0.14-1.32,0.96c-0.05,0.48-0.23,0.96-0.2,1.43C502.47,375.03,502.8,380.04,503.27,385.27 M746.34,252.55
		c-1.7,0.08-3.32,0.08-4.91,0.29c-2.17,0.3-4.32,0.77-6.48,1.16c-1.24,0.22-2.11-0.49-2.52-1.71c-0.57-1.68-1.27-3.32-1.99-4.93
		c-0.93-2.08-1.74-4.24-2.99-6.12c-0.69-1.04-0.93-2.37-2.1-3.19c-0.97-0.68-0.37-4.23,0.77-4.68c1.2-0.47,1.49-1.63,2.28-2.4
		c0.29-0.29,0.49-0.71,0.83-0.91c1.26-0.73,2.02-1.93,2.93-2.98c0.58-0.68,1.26-1.68,2.17-1.14c0.85,0.5,1.89,0.7,2.5,1.85
		c0.88,1.65,2.31,3,3.46,4.52c0.45,0.6,0.8,1.29,1.14,1.97c1.05,2.13,2.2,4.22,3.08,6.42c1.16,2.87,2.17,5.8,3.12,8.75
		C748.03,250.69,748.09,252.01,746.34,252.55 M745.15,251.06c0.92,0.26,1.19-0.07,0.9-0.96c-0.27-0.81-0.47-1.65-0.78-2.44
		c-1.29-3.32-2.53-6.66-3.96-9.92c-0.71-1.62-1.78-3.08-2.7-4.6c-1.13-1.85-2.28-3.7-3.45-5.54c-0.38-0.59-0.76-0.47-1.22,0.02
		c-2.05,2.18-4.09,4.38-6.24,6.47c-1.3,1.26-1.49,2.1-0.44,3.65c0.69,1.03,1.45,2.04,1.98,3.15c1.49,3.17,2.88,6.39,4.31,9.58
		c0.24,0.53,0.43,1.07,0.71,1.57c0.24,0.43,0.4,0.82,1.16,0.38c0.88-0.51,1.99-0.72,3.03-0.84
		C740.62,251.33,742.8,251.21,745.15,251.06 M640.46,406.81c-0.15,1.82-0.6,2.27-2.85,2.49c-1.39,0.14-2.79,0.3-4.18,0.3
		c-2.47,0.01-4.95-0.17-7.42-0.13c-2.9,0.05-5.79,0.27-8.68,0.37c-1.55,0.05-2.81-1.25-3.11-2.87c-0.41-2.23-0.96-4.44-1.43-6.66
		c-0.13-0.6-0.28-1.21-0.27-1.81c0.01-0.5,0.4-0.8,0.77-1.19c1.5-1.62,3.33-0.8,4.98-1.05c2.74-0.43,5.51-0.92,8.27-0.97
		c2.21-0.04,4.32-0.55,6.47-0.7c0.86-0.06,1.7-0.24,2.56-0.32c1.7-0.14,2.83,0.47,3.14,2.1
		C639.35,399.82,639.89,403.27,640.46,406.81 M617.82,408.24c6.14-0.15,12.29-0.36,18.43-0.42c2.55-0.03,2.84-0.2,2.38-2.67
		c-0.05-0.28-0.2-0.54-0.25-0.82c-0.35-2.38-0.81-4.75-0.95-7.14c-0.06-1.05-0.47-1.23-1.23-1.23c-0.61,0-1.21,0.18-1.82,0.24
		c-6.29,0.57-12.58,1.15-18.87,1.7c-0.95,0.08-1.37,0.47-1.16,1.46c0.54,2.5,1.21,4.98,1.53,7.5
		C616.06,408.18,616.59,408.36,617.82,408.24 M509.38,334.92c-1.66-0.3-3.2-0.71-4.37-1.86c-0.27-0.27-0.38-0.86-0.32-1.27
		c0.45-3.26,0.88-6.53,1.46-9.77c0.48-2.69,1.12-5.35,1.76-8.01c0.39-1.6,1.27-2.17,2.87-1.85c1.53,0.31,3.01,0.84,4.54,1.18
		c1.62,0.35,3.28,0.53,4.9,0.88c1.17,0.25,2.42,0.46,3.4,1.06c0.55,0.34,0.87,1.46,0.84,2.2c-0.05,1.12-0.52,2.22-0.77,3.34
		c-0.29,1.29-0.54,2.6-0.82,3.89c-0.78,3.55-1.54,7.11-2.36,10.66c-0.42,1.84-1.66,2.42-3.46,1.85
		C514.55,336.42,512.01,335.69,509.38,334.92 M522.07,316.28c-0.44-0.13-0.88-0.29-1.33-0.38c-3.1-0.68-6.21-1.3-9.29-2.03
		c-1.24-0.3-1.74-0.16-1.99,1.07c-0.79,3.89-1.55,7.78-2.32,11.67c-0.29,1.48-0.59,2.96-0.85,4.45c-0.14,0.85-0.09,1.45,1.07,1.73
		c2.82,0.66,5.61,1.47,8.36,2.36c2.71,0.87,2.71,0.96,3.41-1.88c1.3-5.19,2.55-10.39,3.86-15.57
		C523.2,316.92,522.96,316.52,522.07,316.28 M512.48,297.22c0.81-2.6,1.6-5.1,2.41-7.6c0.23-0.71,0.36-1.49,0.77-2.09
		c0.58-0.84,1.34-1.36,2.54-0.9c3.2,1.24,6.44,2.34,9.65,3.56c1.57,0.6,2.97,1.59,3.23,3.34c0.14,0.95-0.32,2.01-0.61,2.99
		c-0.42,1.44-0.97,2.84-1.37,4.28c-0.52,1.87-0.94,3.77-1.43,5.65c-0.37,1.42-0.61,2.93-1.27,4.21c-0.35,0.67-1.53,1.41-2.23,1.31
		c-2.75-0.39-5.45-1.11-8.17-1.68c-0.6-0.13-1.24-0.08-1.81-0.26c-1.17-0.38-2.41-0.72-3.43-1.36c-0.49-0.31-0.88-1.34-0.77-1.95
		c0.39-2.16,0.99-4.29,1.55-6.43C511.8,299.29,512.15,298.31,512.48,297.22 M514.04,298.11c-0.18,0.46-0.4,0.91-0.53,1.38
		c-0.62,2.28-1.24,4.57-1.83,6.86c-0.2,0.79-0.05,1.52,0.88,1.71c3.76,0.77,7.52,1.5,11.28,2.27c0.71,0.14,0.94-0.09,1.14-0.8
		c1.28-4.66,2.64-9.3,3.94-13.96c0.75-2.68,0.45-3.09-2.19-4.06c-2.66-0.98-5.3-2.03-7.91-3.14c-1.39-0.59-1.8-0.47-2.16,1.03
		c-0.06,0.24-0.16,0.47-0.23,0.71C515.64,292.72,514.85,295.33,514.04,298.11 M737.37,337.81c-2.18-0.25-4.1-1.01-5.86-2.15
		c-1.02-0.66-2.14-1.19-3.09-1.95c-0.7-0.56-1.38-1.01-2.21-1.41c-0.47-0.22-0.73-1.66-0.52-2.38c0.8-2.64,1.88-5.2,2.79-7.82
		c1.05-3.02,2.14-6.04,3.01-9.11c0.29-1.01,0.55-1.86,1.51-2.31c1.18-0.56,2.3-0.24,3.43,0.3c1.33,0.64,2.7,1.18,4.06,1.75
		c1.62,0.69,3.27,1.33,4.86,2.08c0.31,0.15,0.58,0.68,0.63,1.07c0.31,2.58-0.68,4.93-1.46,7.3c-1.11,3.34-2.16,6.71-3.62,9.9
		c-0.7,1.54-0.89,3.56-2.73,4.45C737.96,337.64,737.71,337.67,737.37,337.81 M729.73,332.81c2.06,1.06,4.14,2.08,6.17,3.2
		c1.26,0.7,1.89,0.12,2.35-0.94c0.98-2.3,2.05-4.57,2.86-6.93c1.21-3.51,2.24-7.08,3.35-10.63c0.3-0.96-0.09-1.51-0.97-1.87
		c-2.85-1.16-5.67-2.4-8.54-3.48c-0.42-0.16-1.36,0.2-1.59,0.6c-0.45,0.77-0.55,1.74-0.83,2.62c-0.93,2.9-1.84,5.8-2.81,8.67
		c-0.7,2.07-1.51,4.11-2.21,6.19c-0.1,0.31-0.04,0.86,0.17,1.05C728.24,331.8,728.93,332.17,729.73,332.81 M714.07,223.89
		c-1.44-1.06-3.17-1.77-4.06-3.06c-0.75-1.09-2.32-1.02-2.67-2.42c-0.07-0.29-0.85,0.07-1.18-0.68c-0.58-1.29-0.53-2.71,0.44-3.75
		c0.63-0.68,1.21-1.45,1.64-2.27c0.74-1.41,1.29-2.91,2.02-4.33c0.51-1,2.69-2,3.91-1.1c3.14,2.33,6.31,4.64,9.38,7.07
		c2,1.58,4.02,3.19,5.73,5.07c0.87,0.95,1.73,1.89,2.66,2.78c0.84,0.81,0.54,2.37-0.32,3.18c-1.67,1.58-3.22,3.28-4.88,4.86
		c-0.99,0.95-2.01,1.88-3.15,2.63c-0.65,0.43-1.56,0.64-2.2-0.31c-0.62-0.92-1.24-1.87-2-2.67c-0.86-0.9-1.89-1.63-2.81-2.48
		C715.73,225.64,714.95,224.81,714.07,223.89 M727.83,219.44c-1.41-1.28-2.8-2.57-4.23-3.83c-1.05-0.92-2.1-1.84-3.22-2.67
		c-2.29-1.69-4.61-3.35-6.96-4.96c-0.67-0.45-1.23-0.34-1.72,0.56c-1.22,2.24-2.62,4.39-3.94,6.57c-0.57,0.94-0.51,1.87,0.38,2.49
		c2.74,1.91,5.26,4.06,7.71,6.33c1.96,1.81,3.71,3.77,5.45,5.76c0.87,0.99,1.57,1.08,2.43,0.16c0.71-0.76,1.42-1.52,2.16-2.25
		c1.44-1.41,2.91-2.79,4.33-4.22c0.24-0.24,0.47-0.87,0.35-1.01C729.76,221.43,728.86,220.55,727.83,219.44 M676.21,201.65
		c-0.97,2.11-1.87,2.25-3.91,1.72c-2.88-0.74-5.79-1.35-8.69-2c-1.88-0.42-3.75-0.97-5.66-1.17c-1.24-0.13-2.29-0.39-3.33-1.08
		c-0.81-0.54-1.29-1.16-1.28-2.09c0.03-2.9,0.12-5.79,0.15-8.69c0.01-0.73-0.26-1.47-0.2-2.19c0.12-1.4,1.37-2.27,2.82-2.1
		c0.35,0.04,0.71,0.06,1.04,0.16c1.59,0.47,3.18,0.98,4.77,1.46c3.33,1,6.65,1.99,9.97,3c1.39,0.43,2.77,0.88,4.14,1.38
		c0.93,0.34,1.8,1.99,1.63,3.02C677.21,195.9,676.71,198.72,676.21,201.65 M673.35,201.88c0.68,0.17,1.13,0.12,1.27-0.76
		c0.42-2.75,0.92-5.49,1.4-8.23c0.14-0.78,0.04-1.24-0.88-1.51c-6.17-1.81-12.32-3.71-18.49-5.55c-1.54-0.46-1.92-0.06-1.67,1.56
		c0.14,0.93,0.33,1.86,0.32,2.8c-0.02,2.23-0.11,4.47-0.24,6.7c-0.07,1.03,0.44,1.35,1.33,1.53
		C661.98,199.54,667.57,200.7,673.35,201.88 M543.99,240.87c1.86,1.48,3.64,2.84,5.42,4.22c0.84,0.66,1.74,1.26,2.47,2.03
		c1.67,1.78,1.75,2.21,0.41,4.37c-2.37,3.79-4.83,7.52-7.29,11.25c-0.8,1.21-1.66,1.46-2.9,0.78c-1.7-0.94-3.32-2.04-4.99-3.04
		c-1.74-1.04-3.51-2.05-5.27-3.05c-0.67-0.38-1.44-0.63-2.03-1.1c-0.34-0.27-0.64-0.88-0.6-1.31c0.1-0.92,0.26-1.9,0.68-2.7
		c1.76-3.29,3.61-6.54,5.48-9.77c0.83-1.44,1.77-2.82,2.72-4.19c0.62-0.91,1.56-0.98,2.57-0.22
		C541.76,238.99,542.82,239.89,543.99,240.87 M550.4,247.77c-1.31-0.89-2.69-1.69-3.92-2.68c-1.92-1.55-3.81-3.16-5.57-4.88
		c-1.02-1-1.2-1.14-2.03,0.16c-1.93,3.04-3.85,6.1-5.7,9.19c-0.79,1.32-1.45,2.73-2.08,4.14c-0.36,0.8-0.38,1.48,0.65,2.06
		c3.38,1.93,6.65,4.04,10.01,6c0.68,0.4,1.59,0.88,2.23-0.24c0.75-1.3,1.49-2.6,2.29-3.87c1.36-2.16,2.66-4.37,4.15-6.43
		C551.72,249.46,551.83,249.48,550.4,247.77 M750.74,277.99c-1.31,1.4-2.96,0.8-4.48,0.95c-2.03,0.19-4.07,0.38-6.08,0.75
		c-1.97,0.36-3.17-0.47-3.29-2.42c-0.23-3.73-0.44-7.48-0.83-11.2c-0.23-2.21-0.84-4.38-1.21-6.58c-0.28-1.64,0.66-2.78,2.26-3.05
		c0.87-0.15,1.7-0.6,2.58-0.7c1.71-0.2,3.45-0.28,5.17-0.38c0.55-0.03,1.1,0.05,1.64,0.05c1.44,0,2.56,0.93,2.71,2.46
		c0.49,4.94,0.95,9.88,1.36,14.82C750.72,274.41,750.7,276.16,750.74,277.99 M738.48,276.82c0.02,0.29-0.06,0.65,0.08,0.85
		c0.25,0.33,0.78,0.86,0.96,0.79c2.41-1.04,4.9-1.41,7.5-1.11c1.85,0.22,2.29-0.17,2.15-2.03c-0.45-5.52-0.98-11.04-1.34-16.57
		c-0.08-1.23-0.52-1.63-1.58-1.68c-2.93-0.13-5.85-0.01-8.65,0.98c-0.84,0.3-1.34,0.83-1.12,1.93c0.61,3.07,1.21,6.14,1.6,9.25
		C738.38,271.67,738.37,274.16,738.48,276.82 M601.14,410.74c-2.46,0.18-4.82,0.28-7.17,0.39c-1.28,0.06-2.55,0.15-3.83,0.21
		c-2.43,0.11-3.54-1.12-3.16-3.52c0.44-2.77,0.75-5.53,0.34-8.36c-0.13-0.87,0.34-1.52,1.42-1.9c3.62-1.27,7.33-0.51,10.99-0.7
		c2.18-0.12,4.36-0.17,6.53-0.36c2.15-0.19,3.15,0.63,3.74,3.45c0.54,2.58,1.01,5.18,1.48,7.78c0.18,1-0.84,2.41-1.82,2.47
		C606.86,410.38,604.05,410.51,601.14,410.74 M597.12,409.29c0.58-0.04,1.15-0.09,1.73-0.12c3.14-0.16,6.28-0.31,9.41-0.48
		c1.19-0.07,1.67-0.7,1.43-1.9c-0.45-2.27-1.12-4.52-1.3-6.81c-0.11-1.46-0.83-1.71-1.87-1.7c-5.24,0.06-10.49,0.16-15.73,0.28
		c-0.9,0.02-1.66,0.33-1.71,1.46c-0.13,2.72-0.25,5.43-0.48,8.14c-0.09,1.08,0.21,1.62,1.31,1.56
		C592.24,409.58,594.59,409.41,597.12,409.29 M561.28,401.95c-0.06-0.87-0.24-1.65-0.18-2.42c0.08-1.02,1.43-1.87,2.43-1.89
		c2.15-0.02,4.3-0.2,6.45-0.24c2.01-0.04,4.02,0.09,6.03,0.03c1.55-0.05,3.11-0.21,4.65-0.42c2.05-0.28,3.99,0.98,4.11,3.15
		c0.18,3.27-0.17,6.5-0.88,9.73c-0.37,1.68-1.66,1.63-2.59,1.67c-3.22,0.14-6.45,0.02-9.67-0.07c-2.62-0.08-5.26-0.2-7.87-0.45
		c-0.95-0.09-1.94-0.49-2.76-1c-0.96-0.59-0.63-1.65-0.32-2.47C561.38,405.77,561.5,403.93,561.28,401.95 M573.26,410.05
		c2.66-0.04,5.33-0.11,8-0.11c0.92,0,1.36-0.38,1.44-1.25c0.1-1.07,0.23-2.14,0.29-3.21c0.1-1.73,0.25-3.47,0.16-5.19
		c-0.03-0.54-0.69-1.41-1.16-1.49c-1.21-0.19-2.48-0.02-3.73,0.01c-4.62,0.1-9.23,0.21-13.85,0.3c-1.23,0.02-1.58,0.44-1.46,1.7
		c0.22,2.39,0.35,4.81-0.57,7.09c-0.44,1.09-0.18,1.35,0.86,1.42C566.52,409.54,569.79,409.79,573.26,410.05 M533.23,397.95
		c-0.71,1.8-1.4,3.51-2.1,5.22c-0.4,0.98-1.7,1.57-2.71,1.32c-3.51-0.86-7.02-1.73-10.55-2.52c-3.54-0.79-6.96-1.92-10.05-3.83
		c-0.63-0.39-1.48-1.26-0.83-2.28c0.69-1.09,1.05-2.36,2.5-3c1.22-0.53,2.1-1.8,3.23-2.58c0.76-0.52,1.71-0.78,2.58-1.15
		c0.94-0.39,1.95-0.66,2.81-1.19c0.9-0.55,3.94-1.1,4.78-0.46c0.61,0.46,1.28,1.22,1.37,1.92c0.29,2.32,2.02,2.79,3.76,3.32
		c1.13,0.34,2.34,0.49,3.41,0.96C533.28,394.5,533.6,395.4,533.23,397.95 M524.1,392.15c-0.47-0.65-1.12-1.24-1.36-1.96
		c-0.48-1.44-0.84-1.68-2.3-1.07c-2.15,0.9-4.33,1.73-6.47,2.66c-1.87,0.8-3.6,1.78-4.71,3.63c-0.71,1.19-0.73,1.58,0.5,2.14
		c1.54,0.69,3.11,1.34,4.72,1.81c2.43,0.71,4.92,1.28,7.38,1.88c2.23,0.54,4.48,1.04,6.71,1.58c0.62,0.15,1.05,0.07,1.27-0.63
		c0.6-1.85,1.28-3.68,1.85-5.54c0.08-0.28-0.21-0.76-0.46-1.03c-0.97-1.07-2.36-1.03-3.64-1.24
		C526.21,394.15,525.04,393.59,524.1,392.15 M549.01,408.98c-1.83-0.49-3.58-0.91-5.34-1.26c-2.07-0.41-4.18-0.64-6.21-1.17
		c-1.11-0.29-2.19-0.92-3.12-1.61c-0.3-0.23-0.26-1.17-0.12-1.71c0.48-1.77,1.12-3.49,1.62-5.25c0.57-1.98,2.33-2.73,4.69-2.06
		c1.36,0.38,2.76,0.64,4.16,0.81c2.25,0.28,4.51,0.46,6.77,0.64c0.61,0.05,1.23-0.07,1.85-0.08c3.89-0.07,5.04,1.28,5.42,4.97
		c0.22,2.17-0.29,4.28-1.46,6.14c-0.62,0.98-1.24,1.85-2.84,1.38C552.75,409.27,550.89,409.29,549.01,408.98 M543.86,406.23
		c0.44,0.13,0.88,0.3,1.33,0.38c2.96,0.52,5.93,0.95,8.87,1.55c1.38,0.28,1.94-0.3,2.36-1.42c0.77-2.08,0.76-4.2,0.35-6.33
		c-0.17-0.89-0.81-1.31-1.65-1.34c-5.3-0.23-10.61-0.31-15.79-1.61c-1.1-0.28-1.65,0.11-1.91,1.28c-0.36,1.58-0.81,3.17-1.46,4.65
		c-0.42,0.95-0.07,1.22,0.65,1.38C538.95,405.26,541.32,405.72,543.86,406.23"/>
</g>
</svg>
